<svg width="190" height="48" viewBox="0 0 190 48" fill="none" xmlns="http://www.w3.org/2000/svg">
<g id="Company logo" clip-path="url(#clip0_20_10821)">
<g id="Vector">
<path d="M61.0716 31.0798C58.3348 31.0798 56.7304 28.9408 56.7304 26.5185C56.7304 23.7188 58.555 21.8627 61.0716 21.8627C62.3928 21.8627 63.2736 22.3975 64.0916 22.9009L65.4127 20.5416C64.4691 19.9439 62.8961 19.2203 61.2289 19.2203C56.8877 19.2203 53.7734 22.3032 53.7734 26.5185C53.7734 30.7023 56.9506 33.8167 61.2289 33.8167C63.0534 33.8167 64.3747 33.0617 65.4127 32.4325L64.0916 30.0733C63.2736 30.6394 62.0468 31.0798 61.0716 31.0798ZM70.3516 12.7715H73.1514V33.4392H70.3516V12.7715ZM89.2891 19.6608L88.9745 20.8562C88.2196 20.0383 86.6152 19.2203 84.9165 19.2203C81.4561 19.2203 78.279 21.9571 78.279 26.4241C78.279 31.0484 81.4561 33.8482 84.9165 33.8482C86.6152 33.8482 88.1567 33.0302 88.9745 32.2123L89.2891 33.4707H91.6484V19.7551H89.2891V19.6608ZM89.0374 26.6128C89.0374 29.7587 87.1185 31.1742 85.294 31.1742C83.438 31.1742 81.2989 29.916 81.2989 26.4555C81.2989 24.2536 82.4628 21.8942 85.0738 21.8942C87.0556 21.8942 89.0374 23.4986 89.0374 26.4555V26.6128ZM101.652 27.7139C103.571 28.2172 104.389 28.5947 104.389 29.5699C104.389 30.3249 103.728 31.1113 102.187 31.1113C100.771 31.1113 99.6072 30.608 98.5062 30.0103L97.2479 32.3696C98.2231 32.9673 100.394 33.7852 102.187 33.7852C105.27 33.7852 107.062 31.709 107.062 29.6014C107.062 25.9837 103.508 25.4175 102.564 25.1029C100.582 24.5682 100.079 24.1592 100.079 23.3413C100.079 22.4604 100.834 21.8627 102.281 21.8627C103.539 21.8627 104.483 22.2402 105.364 22.6807L106.685 20.3214C105.427 19.7866 103.948 19.2203 102.281 19.2203C99.2612 19.2203 97.4367 21.3594 97.4367 23.3413C97.4367 26.5185 100.111 27.3364 101.652 27.7139ZM116.657 27.7139C118.576 28.2172 119.394 28.5947 119.394 29.5699C119.394 30.3249 118.733 31.1113 117.192 31.1113C115.776 31.1113 114.612 30.608 113.511 30.0103L112.253 32.3696C113.228 32.9673 115.399 33.7852 117.192 33.7852C120.275 33.7852 122.068 31.709 122.068 29.6014C122.068 25.9837 118.513 25.4175 117.57 25.1029C115.587 24.5682 115.084 24.1592 115.084 23.3413C115.084 22.4604 115.839 21.8627 117.286 21.8627C118.545 21.8627 119.488 22.2402 120.37 22.6807L121.691 20.3214C120.432 19.7866 118.954 19.2203 117.286 19.2203C114.267 19.2203 112.442 21.3594 112.442 23.3413C112.41 26.5185 115.116 27.3364 116.657 27.7139ZM134.21 19.2203C132.512 19.2203 130.971 20.0383 130.153 20.8562L129.838 19.5978H127.479V39.133H130.121V32.3382L130.216 32.2752C130.971 33.0932 132.512 33.7538 133.991 33.7538C137.545 33.7538 140.848 31.4573 140.848 26.3297C140.911 21.7369 137.734 19.2203 134.21 19.2203ZM133.896 31.1742C132.072 31.1742 130.153 29.7587 130.153 26.6128V26.4555C130.153 23.4357 132.134 21.8942 134.117 21.8942C136.758 21.8942 137.892 24.2536 137.892 26.4555C137.892 29.916 135.752 31.1742 133.896 31.1742ZM156.514 19.6608L156.2 20.9191C155.445 20.1012 153.841 19.2833 152.142 19.2833C148.681 19.2833 145.504 22.02 145.504 26.487C145.504 31.1113 148.681 33.9111 152.142 33.9111C153.841 33.9111 155.381 33.0932 156.2 32.2752L156.514 33.5336H158.874V19.818H156.514V19.6608ZM156.231 26.6128C156.231 29.7587 154.312 31.1742 152.487 31.1742C150.631 31.1742 148.493 29.916 148.493 26.4555C148.493 24.2536 149.656 21.8942 152.268 21.8942C154.249 21.8942 156.231 23.4986 156.231 26.4555V26.6128ZM168.877 27.7139C170.796 28.2172 171.613 28.5947 171.613 29.5699C171.613 30.3249 170.953 31.1113 169.411 31.1113C167.996 31.1113 166.832 30.608 165.731 30.0103L164.473 32.3696C165.448 32.9673 167.619 33.7852 169.411 33.7852C172.495 33.7852 174.287 31.709 174.287 29.6014C174.287 25.9837 170.733 25.4175 169.789 25.1029C167.807 24.5682 167.304 24.1592 167.304 23.3413C167.304 22.4604 168.059 21.8627 169.506 21.8627C170.764 21.8627 171.708 22.2402 172.589 22.6807L173.91 20.3214C172.652 19.7866 171.174 19.2203 169.506 19.2203C166.486 19.2203 164.661 21.3594 164.661 23.3413C164.63 26.5185 167.335 27.3364 168.877 27.7139ZM183.851 27.7139C185.77 28.2172 186.587 28.5947 186.587 29.5699C186.587 30.3249 185.927 31.1113 184.385 31.1113C182.97 31.1113 181.806 30.608 180.705 30.0103L179.447 32.3696C180.422 32.9673 182.593 33.7852 184.385 33.7852C187.469 33.7852 189.261 31.709 189.261 29.6014C189.261 25.9837 185.707 25.4175 184.763 25.1029C182.781 24.5682 182.278 24.1592 182.278 23.3413C182.278 22.4604 183.033 21.8627 184.48 21.8627C185.738 21.8627 186.682 22.2402 187.562 22.6807L188.884 20.3214C187.626 19.7866 186.147 19.2203 184.48 19.2203C181.46 19.2203 179.635 21.3594 179.635 23.3413C179.635 26.5185 182.341 27.3364 183.851 27.7139Z" fill="#333333"/>
<path d="M29.7678 8.39941H24.7031C23.8224 8.39941 22.9416 9.05994 22.8472 9.94077L22.0922 13.5585C21.9978 14.219 21.4316 14.6594 20.771 14.6594H15.1716C7.59025 14.7538 0.575195 20.4791 0.575195 28.5951C0.575195 35.8305 6.61506 42.4366 15.2974 42.4366H21.0226C21.9035 42.4366 22.7843 41.776 22.8787 40.8951L23.6337 37.2775C23.728 36.6169 24.2943 36.1765 24.9548 36.1765H29.8937C38.3559 36.1765 44.6159 29.6962 44.6159 22.3351C44.49 14.219 37.5694 8.39941 29.7678 8.39941ZM29.642 30.7972H23.6966C22.8158 30.7972 22.0608 31.4579 21.8405 32.3387L21.0855 35.8619C20.9912 36.5225 20.4249 36.963 19.7644 36.963H15.3602C10.8618 36.963 6.01737 33.7857 6.01737 28.5008C6.01737 23.6563 10.2956 20.0387 15.3602 20.0387H22.1551C23.036 20.0387 23.791 19.3781 24.0112 18.4973L24.7661 14.974C24.8604 14.3134 25.4267 13.873 26.0873 13.873H29.6105C34.3292 13.873 38.9535 17.1761 38.9535 22.3351C38.8905 27.0538 34.8325 30.7972 29.642 30.7972Z" fill="#333333"/>
</g>
</g>
<defs>
<clipPath id="clip0_20_10821">
<rect width="189" height="48" fill="white" transform="translate(0.5)"/>
</clipPath>
</defs>
</svg>
