<svg width="170" height="48" viewBox="0 0 170 48" fill="none" xmlns="http://www.w3.org/2000/svg">
<g id="Company logo" clip-path="url(#clip0_20_10827)">
<path id="Vector" d="M167.301 20.3365C168.289 21.3846 168.786 22.8055 168.786 24.6058V34.0765H165.121V25.6795C165.121 24.6186 164.822 23.7828 164.223 23.172C163.623 22.5612 162.814 22.2526 161.788 22.2526C160.577 22.2718 159.614 22.6898 158.907 23.4999C158.199 24.31 157.842 25.3516 157.842 26.6182V34.0765H154.203V13.0325H157.842V21.796C158.869 19.8093 160.672 18.7999 163.247 18.7613C164.956 18.7613 166.313 19.2821 167.301 20.3365ZM146.108 22.0211C144.897 22.0211 143.909 22.439 143.157 23.2684C142.405 24.1043 142.023 25.178 142.023 26.5025C142.023 27.8656 142.405 28.9586 143.157 29.7944C143.916 30.6239 144.897 31.0418 146.115 31.0418C147.906 31.0418 149.251 30.4438 150.149 29.2544L152.418 31.1575C151.749 32.1412 150.831 32.9256 149.761 33.4272C148.658 33.9544 147.383 34.218 145.924 34.218C144.451 34.218 143.138 33.8965 141.991 33.2536C140.863 32.6299 139.932 31.6847 139.32 30.5467C138.683 29.3829 138.364 28.0456 138.364 26.5346C138.364 25.0044 138.689 23.6478 139.333 22.4776C139.951 21.3267 140.888 20.388 142.023 19.7579C143.17 19.1149 144.489 18.7934 145.987 18.7934C147.351 18.7934 148.569 19.0313 149.639 19.5135C150.71 19.9958 151.583 20.6837 152.259 21.571L150.047 23.6992C149.021 22.5805 147.715 22.0211 146.108 22.0211ZM136.038 18.9027V34.0765H132.398V31.6654C131.882 32.4756 131.162 33.1378 130.314 33.5815C129.466 34.0251 128.491 34.2501 127.389 34.2501C125.967 34.2501 124.724 33.9222 123.647 33.2728C122.576 32.6235 121.735 31.704 121.142 30.521C120.55 29.3379 120.25 27.9813 120.25 26.4511C120.25 24.9401 120.55 23.6028 121.149 22.439C121.742 21.2753 122.583 20.3751 123.654 19.7322C124.724 19.0892 125.961 18.7677 127.363 18.7677C128.466 18.7677 129.447 18.9928 130.301 19.4364C131.156 19.88 131.882 20.5359 132.398 21.3524V18.9156L136.038 18.9027ZM131.079 30.0323C131.844 29.2865 132.284 28.2964 132.398 27.0683V25.9946C132.284 24.7601 131.85 23.7764 131.085 23.0305C130.321 22.2847 129.352 21.9118 128.173 21.9118C126.923 21.9118 125.904 22.3426 125.12 23.2041C124.336 24.0657 123.934 25.178 123.915 26.5346C123.934 27.8977 124.336 29.0036 125.12 29.8652C125.904 30.7267 126.923 31.1575 128.173 31.1575C129.345 31.1575 130.314 30.7846 131.079 30.0323ZM116.585 20.8573C117.79 22.2397 118.389 24.175 118.389 26.6697C118.389 27.1583 118.376 27.5312 118.363 27.7756H107.305C107.547 28.8557 108.044 29.698 108.803 30.3152C109.555 30.9325 110.485 31.2347 111.588 31.2347C112.34 31.2347 113.092 31.0868 113.787 30.791C114.482 30.5081 115.106 30.0773 115.623 29.5308L117.579 31.6012C116.821 32.4434 115.89 33.0992 114.845 33.53C113.774 33.9865 112.582 34.2116 111.276 34.2116C109.746 34.2116 108.395 33.8901 107.228 33.2471C106.088 32.6299 105.144 31.6847 104.526 30.5403C103.889 29.3765 103.576 28.0392 103.576 26.5282C103.576 25.0173 103.895 23.6735 104.545 22.5033C105.17 21.3524 106.107 20.4008 107.248 19.7643C108.408 19.1085 109.721 18.787 111.193 18.787C113.583 18.787 115.381 19.4814 116.585 20.8573ZM115.062 25.313C115.024 24.1943 114.66 23.307 113.972 22.6448C113.284 21.9825 112.366 21.6482 111.225 21.6482C110.16 21.6482 109.268 21.9761 108.548 22.6255C107.828 23.2749 107.388 24.1686 107.216 25.3066H115.062V25.313ZM99.6182 19.5714C100.485 19.0506 101.498 18.7806 102.659 18.7613V22.3361C101.11 22.2397 99.8732 22.6062 98.949 23.4292C98.0248 24.2521 97.5595 25.3645 97.5595 26.7597V34.0765H93.9201V18.9027H97.5595V21.8218C98.0694 20.838 98.7514 20.0858 99.6182 19.5714ZM91.1921 33.1378C90.0002 33.8772 88.7446 34.2437 87.438 34.2437C86.1505 34.2437 85.0924 33.8579 84.2766 33.0928C83.4544 32.3277 83.0465 31.1961 83.0465 29.7044V15.3536L86.6604 14.9164V19.52H90.9435V22.214H86.6604V29.055C86.6604 29.7559 86.7879 30.2509 87.0492 30.5403C87.3105 30.836 87.6993 30.9775 88.222 30.9775C88.7828 30.9775 89.4903 30.7717 90.3508 30.3538L91.1921 33.1378ZM76.303 18.9027H79.9169V27.4091C79.9169 32.3727 76.4942 34.218 73.0206 34.218C69.5469 34.218 66.1305 32.3727 66.1305 27.4091V18.9027H69.7444V27.5377C69.7444 29.4408 71.1467 30.9839 73.0269 30.9839C74.9072 30.9839 76.3094 29.4408 76.3094 27.5377L76.303 18.9027ZM58.6414 15.3022C60.2029 16.1573 61.5032 17.4239 62.4083 18.9606C63.3261 20.5101 63.7786 22.2333 63.7786 24.1236C63.7786 26.0138 63.3197 27.737 62.4083 29.2994C61.5032 30.8489 60.2029 32.1284 58.6414 33.0028C57.0416 33.9094 55.276 34.3659 53.332 34.3659C51.388 34.3659 49.6225 33.9094 48.0291 33.0028C46.4675 32.1284 45.1673 30.8489 44.2622 29.2994C43.3507 27.737 42.8918 26.0138 42.8918 24.1236C42.8918 22.2333 43.3507 20.5101 44.2622 18.9606C45.1673 17.4175 46.4675 16.1573 48.0291 15.3022C49.6225 14.4149 51.3944 13.9713 53.332 13.9713C55.276 13.9648 57.0479 14.4085 58.6414 15.3022ZM50.0623 18.2662C49.0489 18.8449 48.2075 19.6871 47.6275 20.703C47.0284 21.7382 46.7288 22.8762 46.7288 24.1236C46.7288 25.3709 47.0348 26.5154 47.6403 27.5569C48.2267 28.5793 49.068 29.428 50.075 30.0259C51.0948 30.6303 52.1975 30.9325 53.3958 30.9325C54.5494 30.9389 55.6839 30.6239 56.6719 30.0259C57.6726 29.428 58.4948 28.5793 59.0684 27.5569C59.6612 26.5089 59.9607 25.3259 59.948 24.1236C59.948 22.8762 59.6548 21.7382 59.0684 20.703C58.5011 19.6936 57.6726 18.8513 56.6719 18.2662C55.6776 17.6747 54.5494 17.3661 53.3958 17.3725C52.223 17.3661 51.0757 17.6747 50.0623 18.2662ZM15.4656 5.4585C20.6219 5.4585 28.4107 7.05946 32.031 10.7307C32.9488 11.663 34.1534 13.4826 34.1534 16.1573C34.1534 20.9023 30.3738 28.187 26.2053 32.4177C24.051 34.6038 20.6219 37.4585 16.0073 37.4585C11.4947 37.4585 8.0529 34.3594 7.05859 33.3436C3.23434 29.473 0.5 23.5963 0.5 18.1248C0.5 14.6656 1.47518 11.6437 3.95457 9.12978C6.24912 6.80871 10.2072 5.4585 15.4656 5.4585ZM21.8457 24.3936C23.5857 22.6319 24.0574 20.4587 24.0574 19.2628C24.0574 18.3948 23.8343 17.1282 22.7635 16.0416C21.1255 14.3763 19.3026 13.907 17.3267 13.907C14.8218 13.907 13.1391 14.7107 12.0174 15.8423C11.1378 16.7424 10.3793 18.1055 10.3793 20.0536C10.3793 21.9954 11.4055 23.8728 12.5145 25.0044C13.5471 26.046 15.166 26.8175 16.7913 26.8175C18.423 26.8175 20.1057 26.1553 21.8457 24.3936Z" fill="#070707"/>
</g>
<defs>
<clipPath id="clip0_20_10827">
<rect width="169" height="48" fill="white" transform="translate(0.5)"/>
</clipPath>
</defs>
</svg>
