<svg width="20" height="20" viewBox="0 0 20 20" fill="none" xmlns="http://www.w3.org/2000/svg">
<path d="M2.14288 14.7917C2.14288 16.5847 3.08205 17.5101 4.88875 17.5101H14.7348C16.3311 17.5101 17.2702 16.5779 17.2702 14.7917V6.13726C17.2702 4.35116 16.3242 3.41886 14.5244 3.41886H13.3252C13.2879 1.54955 11.6868 0 9.70317 0C7.7195 0 6.12525 1.54955 6.08105 3.41886H4.88875C3.08205 3.41886 2.14288 4.3443 2.14288 6.13726V14.7917ZM3.78283 14.6539V6.27504C3.78283 5.46025 4.20554 5.0588 4.98383 5.0588H14.4225C15.1939 5.0588 15.6303 5.46025 15.6303 6.27504V14.6539C15.6303 15.4672 15.1939 15.8702 14.6329 15.8702H4.98383C4.20554 15.8702 3.78283 15.4672 3.78283 14.6539ZM7.66826 3.41886C7.7056 2.3337 8.55605 1.46065 9.70317 1.46065C10.8502 1.46065 11.7075 2.3337 11.738 3.41886H7.66826Z" fill="#F7604B"/>
</svg>
