<svg width="18" height="17" viewBox="0 0 18 17" fill="none" xmlns="http://www.w3.org/2000/svg">
<g id="Page-1" opacity="0.6">
<g id="090---Floor-Space">
<path id="Shape" d="M16.1999 5.64837V2.63346C16.1999 2.33891 15.9313 2.10013 15.5999 2.10013H14.0999C13.7685 2.10013 13.4999 2.33891 13.4999 2.63346V3.65745L9.38571 0.623612C9.16181 0.458796 8.8377 0.458796 8.61381 0.623612L0.218608 6.81476C0.0926355 6.90762 0.0144063 7.04192 0.00179809 7.18696C-0.0108101 7.332 0.0432803 7.47538 0.151708 7.58435L0.899908 8.33474C1.11582 8.55365 1.48893 8.57912 1.73991 8.39207L1.79991 8.34621V15.9667C1.79991 16.2612 2.06854 16.5 2.39991 16.5H15.5999C15.9313 16.5 16.1999 16.2612 16.1999 15.9667V8.34621L16.262 8.39207C16.5125 8.57832 16.8844 8.55287 17.0999 8.33474L17.8469 7.58435C17.9555 7.47548 18.0098 7.33208 17.9972 7.187C17.9847 7.04191 17.9064 6.90757 17.7803 6.81476L16.1999 5.64837ZM14.0999 2.63346H15.5999V5.20597L14.0999 4.10011V2.63346ZM15.5999 15.9667H2.39991V7.90381L8.99991 3.03692L15.5999 7.90381V15.9667ZM16.6514 7.98115C16.6497 7.98267 16.6469 7.98267 16.6451 7.98115L9.19161 2.4852C9.08048 2.40314 8.91934 2.40314 8.80821 2.4852L1.34991 7.98115L0.601708 7.22515L9.00291 1.03348L17.3999 7.23075L16.6514 7.98115Z" fill="#1D1D1D"/>
<path id="Shape_2" d="M13.2599 13.4067C13.1605 13.5246 13.1873 13.6917 13.3199 13.7801L13.7999 14.1001H4.4999V8.76678L4.8599 9.19344C4.95931 9.31126 5.14735 9.33514 5.2799 9.24677C5.41244 9.15841 5.43931 8.99126 5.3399 8.87344L4.4399 7.80679C4.38086 7.74301 4.29281 7.70605 4.1999 7.70605C4.10698 7.70605 4.01893 7.74301 3.9599 7.80679L3.0599 8.87344C2.96048 8.99126 2.98735 9.15841 3.1199 9.24677C3.25244 9.33514 3.44048 9.31126 3.5399 9.19344L3.8999 8.76678V14.3667C3.8999 14.514 4.03421 14.6334 4.1999 14.6334H13.7999L13.3199 14.9534C13.2342 15.0106 13.1892 15.104 13.202 15.1986C13.2149 15.2932 13.2835 15.3745 13.382 15.4119C13.4806 15.4494 13.5942 15.4372 13.6799 15.3801L14.8799 14.5801C14.9554 14.5297 14.9999 14.4507 14.9999 14.3667C14.9999 14.2828 14.9554 14.2038 14.8799 14.1534L13.6799 13.3534C13.5473 13.265 13.3593 13.2889 13.2599 13.4067Z" fill="#1D1D1D"/>
<path id="Shape_3" d="M7.82479 9.97456C7.76682 9.87783 7.64817 9.82247 7.52567 9.83501C7.40318 9.84755 7.30179 9.92544 7.27009 10.0314L6.31009 13.2313C6.27049 13.3726 6.36559 13.5159 6.52377 13.5535C6.68196 13.591 6.8448 13.5089 6.88969 13.3689L7.65379 10.8228L8.73379 12.6257C8.79095 12.7068 8.89103 12.7561 8.99869 12.7561C9.10635 12.7561 9.20643 12.7068 9.26359 12.6257L10.3436 10.8228L11.1077 13.3689C11.1526 13.5089 11.3154 13.591 11.4736 13.5535C11.6318 13.5159 11.7269 13.3726 11.6873 13.2313L10.7273 10.0314C10.6956 9.92544 10.5942 9.84755 10.4717 9.83501C10.3492 9.82247 10.2306 9.87783 10.1726 9.97456L8.99989 11.9335L7.82479 9.97456Z" fill="#1D1D1D"/>
<path id="Shape_4" d="M12.6929 8.10281L11.6984 8.7668C11.3222 9.01962 11.1008 9.41429 11.0999 9.83346C11.0999 9.98074 11.2342 10.1001 11.3999 10.1001H13.1999C13.3656 10.1001 13.4999 9.98074 13.4999 9.83346C13.4999 9.68619 13.3656 9.5668 13.1999 9.5668H11.7515C11.8108 9.41813 11.9181 9.28828 12.0599 9.19347L13.0619 8.52361C13.425 8.25839 13.5805 7.82917 13.4597 7.42545C13.339 7.02172 12.9642 6.71781 12.5009 6.64789C12.1523 6.59525 11.7954 6.68191 11.5254 6.88473C11.2553 7.08755 11.0997 7.3859 11.0999 7.70015C11.0999 7.84742 11.2342 7.96681 11.3999 7.96681C11.5656 7.96681 11.6999 7.84742 11.6999 7.70015C11.6997 7.5424 11.778 7.39267 11.9139 7.2912C12.0498 7.18972 12.2292 7.14692 12.404 7.17429C12.6361 7.20586 12.8237 7.35909 12.8786 7.56202C12.9422 7.75906 12.8695 7.97094 12.6929 8.10281Z" fill="#1D1D1D"/>
</g>
</g>
</svg>
