<svg width="14" height="12" viewBox="0 0 14 12" fill="none" xmlns="http://www.w3.org/2000/svg">
<g id="arrow.left">
<g id="Group">
<path id="Vector" d="M0.321533 6.04404C0.321533 6.25905 0.415166 6.46751 0.576674 6.62316L5.26899 11.3071C5.4369 11.4705 5.62345 11.5512 5.82367 11.5512C6.2645 11.5512 6.59065 11.2361 6.59065 10.8073C6.59065 10.5867 6.50103 10.389 6.36027 10.2554L4.76652 8.64216L2.11548 6.22091L1.86234 6.67586L4.32368 6.82073H12.9796C13.4469 6.82073 13.7645 6.50238 13.7645 6.04404C13.7645 5.58569 13.4469 5.26738 12.9796 5.26738H4.32368L1.86234 5.41223L2.11548 5.87428L4.76652 3.44594L6.36027 1.83141C6.50103 1.69068 6.59065 1.50014 6.59065 1.27944C6.59065 0.850692 6.2645 0.535645 5.82367 0.535645C5.62345 0.535645 5.4369 0.610493 5.25732 0.791354L0.576674 5.46489C0.415166 5.62056 0.321533 5.82903 0.321533 6.04404Z" fill="#1D1D1D"/>
</g>
</g>
</svg>
