<svg width="20" height="20" viewBox="0 0 20 20" fill="none" xmlns="http://www.w3.org/2000/svg">
<path d="M2.53571 10.049C2.53571 10.2893 2.64036 10.5223 2.82087 10.6963L8.06522 15.9312C8.25289 16.1139 8.46139 16.204 8.68516 16.204C9.17786 16.204 9.54237 15.8519 9.54237 15.3727C9.54237 15.1261 9.44221 14.9052 9.28489 14.7558L7.50364 12.9528L4.54072 10.2467L4.25779 10.7552L7.0087 10.9171H16.683C17.2053 10.9171 17.5602 10.5613 17.5602 10.049C17.5602 9.53675 17.2053 9.18098 16.683 9.18098H7.0087L4.25779 9.34288L4.54072 9.85928L7.50364 7.14526L9.28489 5.34079C9.44221 5.1835 9.54237 4.97054 9.54237 4.72388C9.54237 4.24469 9.17786 3.89258 8.68516 3.89258C8.46139 3.89258 8.25289 3.97623 8.05218 4.17837L2.82087 9.40173C2.64036 9.57572 2.53571 9.80871 2.53571 10.049Z" fill="white"/>
</svg>
