<svg width="16" height="14" viewBox="0 0 16 14" fill="none" xmlns="http://www.w3.org/2000/svg">
<g id="arrow.right">
<g id="Group">
<path id="Vector" d="M15.5602 7.04902C15.5602 6.80871 15.4621 6.57572 15.2816 6.40173L10.0438 1.17837C9.84306 0.976232 9.63453 0.892578 9.41081 0.892578C8.9181 0.892578 8.56008 1.24469 8.56008 1.72388C8.56008 1.97054 8.65373 2.1835 8.81245 2.34079L10.5937 4.14526L13.5618 6.85928L13.8381 6.34288L11.0872 6.18098H1.41296C0.890681 6.18098 0.535706 6.53675 0.535706 7.04902C0.535706 7.56128 0.890681 7.91708 1.41296 7.91708H11.0872L13.8381 7.75517L13.5618 7.2467L10.5937 9.9528L8.81245 11.7558C8.65373 11.9052 8.56008 12.1261 8.56008 12.3727C8.56008 12.8519 8.9181 13.204 9.41081 13.204C9.63453 13.204 9.84306 13.1139 10.0307 12.9312L15.2816 7.69627C15.4621 7.52232 15.5602 7.28933 15.5602 7.04902Z" fill="white"/>
</g>
</g>
</svg>
