<svg width="13" height="13" viewBox="0 0 13 13" fill="none" xmlns="http://www.w3.org/2000/svg">
<g id="arrow.up.right">
<g id="Group">
<path id="Vector" d="M12.3799 9.82538L12.3748 1.84142C12.3748 1.29369 12.0147 0.914062 11.446 0.914062H3.46057C2.93082 0.914062 2.55564 1.31754 2.55564 1.78369C2.55564 2.2484 2.96342 2.63025 3.43592 2.63025H6.26763L9.69451 2.51304L8.24691 3.78775L0.674193 11.375C0.495274 11.5567 0.392853 11.7797 0.392853 12.0019C0.392853 12.4623 0.81208 12.8946 1.28554 12.8946C1.51424 12.8946 1.73069 12.8052 1.91247 12.6183L9.49962 5.0405L10.7874 3.58639L10.6571 6.87632V9.85008C10.6571 10.324 11.0376 10.7368 11.5088 10.7368C11.9764 10.7368 12.3799 10.3393 12.3799 9.82538Z" fill="white"/>
</g>
</g>
</svg>
