<svg width="12" height="13" viewBox="0 0 12 13" fill="none" xmlns="http://www.w3.org/2000/svg">
<g id="arrow.up.right">
<g id="Group">
<path id="Vector" d="M11.9799 9.3244L11.9748 1.34044C11.9748 0.792712 11.6147 0.413086 11.0459 0.413086H3.06055C2.53079 0.413086 2.15562 0.816568 2.15562 1.28271C2.15562 1.74742 2.56339 2.12928 3.0359 2.12928H5.86761L9.29448 2.01207L7.84689 3.28677L0.274168 10.874C0.0952492 11.0557 -0.00717163 11.2787 -0.00717163 11.5009C-0.00717163 11.9613 0.412055 12.3936 0.885516 12.3936C1.11422 12.3936 1.33067 12.3042 1.51245 12.1173L9.0996 4.53952L10.3874 3.08542L10.2571 6.37534V9.3491C10.2571 9.82301 10.6376 10.2359 11.1088 10.2359C11.5764 10.2359 11.9799 9.83828 11.9799 9.3244Z" fill="#1D1D1D"/>
</g>
</g>
</svg>
