<svg width="16" height="17" viewBox="0 0 16 17" fill="none" xmlns="http://www.w3.org/2000/svg">
<g id="bath-towel 1" opacity="0.6">
<path id="Vector" d="M5.5584 2.00731C5.6084 2.00731 5.65728 1.99248 5.69885 1.9647C5.74042 1.93693 5.77283 1.89744 5.79196 1.85125C5.81109 1.80506 5.8161 1.75423 5.80635 1.70519C5.79659 1.65615 5.77251 1.61111 5.73716 1.57575C5.7018 1.5404 5.65676 1.51632 5.60772 1.50657C5.55868 1.49681 5.50785 1.50182 5.46166 1.52095C5.41547 1.54009 5.37599 1.57249 5.34821 1.61406C5.32043 1.65563 5.3056 1.70451 5.3056 1.75451C5.3056 1.82156 5.33224 1.88586 5.37965 1.93327C5.42706 1.98067 5.49136 2.00731 5.5584 2.00731Z" fill="#1D1D1D"/>
<path id="Vector_2" d="M13.784 6.58006C13.8339 6.57974 13.8827 6.56465 13.924 6.53668C13.9654 6.50871 13.9975 6.46912 14.0164 6.4229C14.0353 6.37668 14.0401 6.3259 14.0301 6.27697C14.0202 6.22803 13.996 6.18314 13.9606 6.14794C13.9252 6.11275 13.8801 6.08883 13.8311 6.0792C13.7821 6.06958 13.7314 6.07468 13.6853 6.09386C13.6392 6.11304 13.5998 6.14544 13.5721 6.18698C13.5444 6.22851 13.5296 6.27733 13.5296 6.32726C13.5296 6.36059 13.5362 6.3936 13.549 6.42437C13.5618 6.45515 13.5806 6.48309 13.6042 6.50658C13.6279 6.53008 13.6559 6.54867 13.6868 6.56128C13.7176 6.57389 13.7507 6.58027 13.784 6.58006Z" fill="#1D1D1D"/>
<path id="Vector_3" d="M1.04 6.38953H1.2896V6.63913C1.2896 6.724 1.32332 6.80539 1.38333 6.86541C1.44334 6.92542 1.52473 6.95913 1.6096 6.95913C1.69447 6.95913 1.77586 6.92542 1.83588 6.86541C1.89589 6.80539 1.9296 6.724 1.9296 6.63913V6.38953H2.1792C2.26407 6.38953 2.34546 6.35582 2.40548 6.29581C2.46549 6.23579 2.4992 6.1544 2.4992 6.06953C2.4992 5.98466 2.46549 5.90327 2.40548 5.84326C2.34546 5.78325 2.26407 5.74953 2.1792 5.74953H1.9296V5.49993C1.9296 5.41506 1.89589 5.33367 1.83588 5.27366C1.77586 5.21365 1.69447 5.17993 1.6096 5.17993C1.52473 5.17993 1.44334 5.21365 1.38333 5.27366C1.32332 5.33367 1.2896 5.41506 1.2896 5.49993V5.74953H1.04C0.955132 5.74953 0.873739 5.78325 0.813727 5.84326C0.753715 5.90327 0.720001 5.98466 0.720001 6.06953C0.720001 6.1544 0.753715 6.23579 0.813727 6.29581C0.873739 6.35582 0.955132 6.38953 1.04 6.38953Z" fill="#1D1D1D"/>
<path id="Vector_4" d="M15.2 2.30642H14.9504V2.05682C14.9504 1.97195 14.9167 1.89055 14.8567 1.83054C14.7967 1.77053 14.7153 1.73682 14.6304 1.73682C14.5455 1.73682 14.4641 1.77053 14.4041 1.83054C14.3441 1.89055 14.3104 1.97195 14.3104 2.05682V2.30642H14.0608C13.9759 2.30642 13.8945 2.34013 13.8345 2.40014C13.7745 2.46015 13.7408 2.54155 13.7408 2.62642C13.7408 2.71129 13.7745 2.79268 13.8345 2.85269C13.8945 2.9127 13.9759 2.94642 14.0608 2.94642H14.3104V3.19602C14.3104 3.28089 14.3441 3.36228 14.4041 3.42229C14.4641 3.4823 14.5455 3.51602 14.6304 3.51602C14.7153 3.51602 14.7967 3.4823 14.8567 3.42229C14.9167 3.36228 14.9504 3.28089 14.9504 3.19602V2.94642H15.2C15.2849 2.94642 15.3663 2.9127 15.4263 2.85269C15.4863 2.79268 15.52 2.71129 15.52 2.62642C15.52 2.54155 15.4863 2.46015 15.4263 2.40014C15.3663 2.34013 15.2849 2.30642 15.2 2.30642Z" fill="#1D1D1D"/>
<path id="Vector_5" d="M14.9488 9.28089C14.9221 8.75808 14.6955 8.26553 14.3157 7.90517C13.936 7.54481 13.4323 7.34421 12.9088 7.34489H10.2656C10.6772 7.12848 11.0546 6.85243 11.3856 6.52569C12.2752 5.63609 12.7792 4.38969 12.8432 2.92249V2.87449C12.8452 2.83018 12.838 2.78592 12.822 2.74453C12.8061 2.70315 12.7816 2.66554 12.7503 2.63409C12.7191 2.60265 12.6816 2.57805 12.6403 2.56187C12.5989 2.54569 12.5547 2.53827 12.5104 2.54009H12.4624C11.1584 2.59769 10.0304 3.00089 9.1712 3.71289C8.95282 2.9349 8.55121 2.22056 8 1.62969L7.9712 1.59929C7.94038 1.56656 7.90319 1.54047 7.86192 1.52264C7.82064 1.5048 7.77616 1.49561 7.7312 1.49561C7.68623 1.49561 7.64175 1.5048 7.60048 1.52264C7.5592 1.54047 7.52201 1.56656 7.4912 1.59929L7.4688 1.62009C7.05462 2.05811 6.71808 2.56347 6.4736 3.11449C6.38954 3.30816 6.31949 3.5076 6.264 3.71129C5.4048 2.99929 4.2768 2.59129 2.9728 2.53689H2.9248C2.88055 2.53491 2.83637 2.54213 2.79506 2.55811C2.75375 2.57408 2.7162 2.59846 2.6848 2.62969C2.65327 2.66096 2.6286 2.69844 2.61235 2.73976C2.5961 2.78108 2.58862 2.82533 2.5904 2.86969V2.91769C2.6544 4.38649 3.1584 5.63769 4.0464 6.52249C4.37735 6.84923 4.75476 7.12527 5.1664 7.34169H2.5232C1.98116 7.34212 1.46147 7.55774 1.07834 7.94117C0.69521 8.3246 0.479996 8.84446 0.479996 9.38649V9.86649C0.4802 10.2069 0.565499 10.5418 0.728132 10.8408C0.890766 11.1398 1.12557 11.3934 1.4112 11.5785C1.13875 11.7537 0.912101 11.9915 0.750127 12.272C0.588154 12.5526 0.495539 12.8677 0.479996 13.1913C0.479996 13.2265 0.479996 13.2585 0.479996 13.2937V13.7737C0.479995 14.3155 0.694989 14.8351 1.07777 15.2185C1.46055 15.6018 1.97984 15.8176 2.5216 15.8185H12.9072C13.4481 15.8181 13.9669 15.6033 14.3498 15.2213C14.7327 14.8392 14.9487 14.321 14.9504 13.7801V13.3001C14.95 12.9594 14.8643 12.6242 14.701 12.3252C14.5378 12.0261 14.3023 11.7727 14.016 11.5881C14.3024 11.4032 14.538 11.1495 14.7012 10.8502C14.8645 10.5509 14.9501 10.2154 14.9504 9.87449V9.39449C14.9504 9.35929 14.9504 9.32569 14.9504 9.29049L14.9488 9.28089ZM12.1776 3.20089C12.0688 4.37209 11.64 5.35929 10.928 6.07129C10.216 6.78329 9.2288 7.22009 8.0576 7.32089C8.12327 6.33646 8.50038 5.39844 9.1344 4.64249C9.18583 4.61008 9.22734 4.56413 9.2544 4.50969C9.272 4.49049 9.288 4.46969 9.3072 4.45209C10.0192 3.73849 11.0064 3.31129 12.1776 3.20249V3.20089ZM7.728 2.30009C8.19439 2.8582 8.50416 3.53018 8.6256 4.24729C8.22181 4.72115 7.91276 5.26811 7.7152 5.85849C7.51753 5.26898 7.20907 4.72265 6.8064 4.24889C6.85395 3.94966 6.93944 3.65771 7.0608 3.38009C7.23136 2.99054 7.45597 2.62696 7.728 2.30009ZM3.248 3.20249C4.4192 3.31129 5.4064 3.74009 6.1184 4.45209L6.1696 4.50649C6.19688 4.56673 6.24215 4.61704 6.2992 4.65049C6.92847 5.40546 7.30261 6.34024 7.368 7.32089C6.1968 7.21369 5.2096 6.78489 4.4976 6.07289C3.7856 5.36089 3.36 4.37369 3.2528 3.20249H3.248ZM1.12 9.86809V9.38809C1.12042 9.01622 1.26844 8.65972 1.53155 8.39691C1.79465 8.13411 2.15132 7.98649 2.5232 7.98649H12.9088C13.2093 7.98626 13.502 8.08274 13.7434 8.26168C13.9849 8.44061 14.1624 8.6925 14.2496 8.98009H4.64C4.3712 8.97946 4.10492 9.03183 3.85638 9.13421C3.60784 9.23659 3.38193 9.38697 3.19157 9.57674C3.0012 9.76651 2.85012 9.99195 2.74696 10.2402C2.64381 10.4884 2.59061 10.7545 2.5904 11.0233V11.2521H2.5216C2.4672 11.2521 2.4128 11.2521 2.3616 11.2521C2.0214 11.2127 1.70737 11.0502 1.47867 10.7952C1.24997 10.5403 1.1224 10.2106 1.12 9.86809ZM2.5216 15.1785C2.15055 15.1781 1.79478 15.0307 1.53211 14.7686C1.26944 14.5066 1.12126 14.1511 1.12 13.7801V13.5273H10.7984C11.1704 13.5281 11.5269 13.6765 11.7897 13.9399C12.0524 14.2032 12.2 14.5601 12.2 14.9321V15.1785H2.5216ZM14.3104 13.3001V13.7801C14.31 14.152 14.1619 14.5085 13.8988 14.7713C13.6357 15.0341 13.2791 15.1817 12.9072 15.1817H12.84V14.9321C12.84 14.3903 12.625 13.8707 12.2422 13.4873C11.8594 13.1039 11.3402 12.8881 10.7984 12.8873H1.1808C1.26018 12.6261 1.41402 12.3938 1.62347 12.2187C1.83291 12.0436 2.08888 11.9335 2.36 11.9017C2.4144 11.9017 2.4688 11.9113 2.52 11.9113H12.9088C12.9632 11.9113 13.016 11.9113 13.0688 11.9017C13.4115 11.9414 13.7275 12.106 13.9565 12.3639C14.1855 12.6219 14.3115 12.9551 14.3104 13.3001ZM14.3104 9.87449C14.31 10.2181 14.1835 10.5496 13.955 10.8062C13.7264 11.0627 13.4117 11.2265 13.0704 11.2665C13.016 11.2665 12.9632 11.2665 12.9104 11.2665H3.2304V11.0233C3.23061 10.8385 3.26725 10.6556 3.33825 10.4851C3.40924 10.3145 3.51318 10.1596 3.64411 10.0293C3.77505 9.89894 3.93041 9.79571 4.1013 9.72549C4.27219 9.65528 4.45525 9.61946 4.64 9.62009H14.3104V9.87449Z" fill="#1D1D1D"/>
</g>
</svg>
