<svg width="16" height="17" viewBox="0 0 16 17" fill="none" xmlns="http://www.w3.org/2000/svg">
<g id="double-bed 1" opacity="0.6" clip-path="url(#clip0_301_1009)">
<g id="Group">
<path id="Vector" d="M14.9792 8.35916V3.33022C14.9792 2.10697 13.9841 1.11182 12.7608 1.11182H3.17537C1.95212 1.11182 0.956969 2.107 0.956969 3.33022V8.42404C0.364469 9.04347 0 9.88276 0 10.8056V14.6188C0 15.3188 0.569469 15.8883 1.26947 15.8883C1.96944 15.8883 2.53891 15.3188 2.53891 14.6188V14.225H13.4611V14.6188C13.4611 15.3188 14.0306 15.8883 14.7306 15.8883C15.4305 15.8883 16 15.3188 16 14.6188V10.8056C16 9.8501 15.6093 8.98422 14.9792 8.35916ZM3.17537 1.73682H12.7608C13.6395 1.73682 14.3542 2.45163 14.3542 3.33022V7.86732C14.1628 7.74947 13.9592 7.64979 13.7455 7.57072V6.53154C13.7455 5.61029 12.996 4.86079 12.0748 4.86079H9.35828C8.79903 4.86079 8.30344 5.13725 8.00003 5.56041C7.69663 5.13725 7.20103 4.86079 6.64178 4.86079H3.92528C3.00403 4.86079 2.25453 5.61025 2.25453 6.53154V7.57072C2.017 7.65863 1.79172 7.77201 1.582 7.90751V3.33022C1.58197 2.45163 2.29675 1.73682 3.17537 1.73682ZM3.44791 7.35766C3.25431 7.35766 3.06444 7.37397 2.87947 7.40479V6.53154C2.87947 5.95491 3.34859 5.48579 3.92522 5.48579H6.64172C7.21834 5.48579 7.68747 5.95491 7.68747 6.53154V7.35769H3.44791V7.35766ZM8.3125 6.5315C8.3125 5.95488 8.78162 5.48575 9.35825 5.48575H12.0747C12.6514 5.48575 13.1205 5.95488 13.1205 6.5315V7.40476C12.9355 7.37394 12.7457 7.35763 12.5521 7.35763H8.3125V6.5315ZM3.44791 7.98266H12.5521C14.1086 7.98266 15.375 9.24901 15.375 10.8056V11.7327H12.2407C12.0681 11.7327 11.9282 11.8726 11.9282 12.0452C11.9282 12.2177 12.0681 12.3577 12.2407 12.3577H15.375V13.6H0.625V12.3577H9.11572C9.28831 12.3577 9.42822 12.2177 9.42822 12.0452C9.42822 11.8726 9.28831 11.7327 9.11572 11.7327H0.625V10.8056C0.625 9.24901 1.89134 7.98266 3.44791 7.98266ZM1.91391 14.6188C1.91391 14.9741 1.62481 15.2633 1.26947 15.2633C0.914125 15.2633 0.625 14.9741 0.625 14.6188V14.225H1.91391V14.6188ZM14.7305 15.2633C14.3752 15.2633 14.0861 14.9741 14.0861 14.6188V14.225H15.375V14.6188C15.375 14.9741 15.0859 15.2633 14.7305 15.2633Z" fill="#1D1D1D"/>
<path id="Vector_2" d="M10.6781 12.3577C10.8507 12.3577 10.9907 12.2178 10.9907 12.0451C10.9907 11.8724 10.8507 11.7324 10.6781 11.7324C10.5054 11.7324 10.3654 11.8724 10.3654 12.0451C10.3654 12.2178 10.5054 12.3577 10.6781 12.3577Z" fill="#1D1D1D"/>
</g>
</g>
<defs>
<clipPath id="clip0_301_1009">
<rect width="16" height="16" fill="white" transform="translate(0 0.5)"/>
</clipPath>
</defs>
</svg>
