<svg width="12" height="19" viewBox="0 0 12 19" fill="none" xmlns="http://www.w3.org/2000/svg">
<g id="bolt">
<g id="Group">
<path id="Vector" d="M4.32643 18.4672L11.7538 8.98954C11.8961 8.814 11.9705 8.64632 11.9705 8.4549C11.9705 8.12837 11.7148 7.8849 11.3622 7.8849H6.82208L9.17601 1.64954C9.50559 0.778955 8.58931 0.312173 8.03669 1.03183L0.60935 10.5044C0.467009 10.6851 0.392578 10.8541 0.392578 11.0391C0.392578 11.3707 0.648314 11.6142 1.00091 11.6142H5.54102L3.18707 17.843C2.85754 18.7136 3.7752 19.1804 4.32643 18.4672ZM4.79273 16.2608L7.53108 10.332H2.5824L7.84377 3.36606L7.56528 3.23962L4.83488 9.16706H9.77559L4.51426 16.133L4.79273 16.2608Z" fill="#1D1D1D"/>
</g>
</g>
</svg>
