<svg width="13" height="13" viewBox="0 0 13 13" fill="none" xmlns="http://www.w3.org/2000/svg">
<g id="checkmark">
<g id="Group">
<path id="Vector" d="M4.81492 12.223C5.16313 12.223 5.43782 12.0777 5.62866 11.7866L11.923 1.97413C12.0641 1.75341 12.1206 1.56873 12.1206 1.38699C12.1206 0.925877 11.7964 0.607666 11.3304 0.607666C10.9999 0.607666 10.808 0.718826 10.6074 1.03356L4.78813 10.2787L1.78933 6.42284C1.5942 6.16439 1.38943 6.05616 1.10014 6.05616C0.622023 6.05616 0.286133 6.39084 0.286133 6.85313C0.286133 7.05176 0.360329 7.25239 0.527336 7.4553L3.99676 11.796C4.22778 12.085 4.47756 12.223 4.81492 12.223Z" fill="#1C1C1E"/>
</g>
</g>
</svg>
