<svg width="16" height="17" viewBox="0 0 16 17" fill="none" xmlns="http://www.w3.org/2000/svg">
<g id="clock (1) 1" opacity="0.6" clip-path="url(#clip0_301_1031)">
<g id="Group">
<g id="Group_2">
<g id="Group_3">
<path id="Vector" d="M7.99901 3.10858C8.19031 3.10858 8.34684 2.95206 8.34684 2.76075V2.58684C8.34684 2.39554 8.19031 2.23901 7.99901 2.23901C7.80771 2.23901 7.65118 2.39554 7.65118 2.58684V2.76075C7.65118 2.95206 7.80771 3.10858 7.99901 3.10858Z" fill="#1D1D1D"/>
<path id="Vector_2" d="M7.99901 13.8914C7.80771 13.8914 7.65118 14.0479 7.65118 14.2392V14.4131C7.65118 14.6044 7.80771 14.7609 7.99901 14.7609C8.19031 14.7609 8.34684 14.6044 8.34684 14.4131V14.2392C8.34684 14.0479 8.19031 13.8914 7.99901 13.8914Z" fill="#1D1D1D"/>
<path id="Vector_3" d="M2.25988 8.1521H2.08596C1.89466 8.1521 1.73814 8.30862 1.73814 8.49993C1.73814 8.69123 1.89466 8.84775 2.08596 8.84775H2.25988C2.45118 8.84775 2.6077 8.69123 2.6077 8.49993C2.6077 8.30862 2.45118 8.1521 2.25988 8.1521Z" fill="#1D1D1D"/>
<path id="Vector_4" d="M13.9121 8.1521H13.7381C13.5468 8.1521 13.3903 8.30862 13.3903 8.49993C13.3903 8.69123 13.5468 8.84775 13.7381 8.84775H13.9121C14.1034 8.84775 14.2599 8.69123 14.2599 8.49993C14.2599 8.30862 14.1034 8.1521 13.9121 8.1521Z" fill="#1D1D1D"/>
<path id="Vector_5" d="M4.06858 4.08262C3.92945 3.94349 3.72075 3.94349 3.58162 4.08262C3.44249 4.22175 3.44249 4.43045 3.58162 4.56958L3.70336 4.69131C3.77292 4.76088 3.85988 4.79566 3.94684 4.79566C4.03379 4.79566 4.12075 4.76088 4.19032 4.69131C4.32945 4.55218 4.32945 4.34349 4.19032 4.20436L4.06858 4.08262Z" fill="#1D1D1D"/>
<path id="Vector_6" d="M3.70336 12.3087L3.58162 12.4304C3.44249 12.5696 3.44249 12.7783 3.58162 12.9174C3.65119 12.987 3.73814 13.0217 3.8251 13.0217C3.91205 13.0217 3.99901 12.987 4.06858 12.9174L4.19032 12.7956C4.32945 12.6565 4.32945 12.4478 4.19032 12.3087C4.05119 12.1696 3.84249 12.1696 3.70336 12.3087Z" fill="#1D1D1D"/>
<path id="Vector_7" d="M11.9294 4.08262L11.8077 4.20436C11.6686 4.34349 11.6686 4.55218 11.8077 4.69131C11.8773 4.76088 11.9642 4.79566 12.0512 4.79566C12.1381 4.79566 12.2251 4.76088 12.2947 4.69131L12.4164 4.56958C12.5555 4.43045 12.5555 4.22175 12.4164 4.08262C12.2773 3.94349 12.0686 3.94349 11.9294 4.08262Z" fill="#1D1D1D"/>
<path id="Vector_8" d="M8.34684 8.36094V5.19573C8.34684 5.00442 8.19031 4.8479 7.99901 4.8479C7.80771 4.8479 7.65118 5.00442 7.65118 5.19573V8.50007C7.65118 8.58703 7.68597 8.67399 7.75553 8.74355L11.5642 12.5522C11.6338 12.6218 11.7207 12.6566 11.8077 12.6566C11.8947 12.6566 11.9816 12.6218 12.0512 12.5522C12.1903 12.4131 12.1903 12.2044 12.0512 12.0653L8.34684 8.36094Z" fill="#1D1D1D"/>
<path id="Vector_9" d="M7.99901 0.5C3.58162 0.5 -0.000991821 4.08261 -0.000991821 8.5C-0.000991821 12.9174 3.58162 16.5 7.99901 16.5C12.4164 16.5 15.999 12.9174 15.999 8.5C15.999 4.08261 12.4164 0.5 7.99901 0.5ZM7.99901 15.8043C3.96423 15.8043 0.69466 12.5348 0.69466 8.5C0.69466 4.46522 3.96423 1.19565 7.99901 1.19565C12.0338 1.19565 15.3034 4.46522 15.3034 8.5C15.3034 12.5348 12.0338 15.8043 7.99901 15.8043Z" fill="#1D1D1D"/>
</g>
</g>
</g>
</g>
<defs>
<clipPath id="clip0_301_1031">
<rect width="16" height="16" fill="white" transform="translate(-0.000991821 0.5)"/>
</clipPath>
</defs>
</svg>
