<svg width="22" height="25" viewBox="0 0 22 25" fill="none" xmlns="http://www.w3.org/2000/svg">
<g id="snowflake" opacity="0.6">
<g id="Group">
<path id="Vector" d="M10.54 24.0244C11.1231 24.0244 11.4763 23.6147 11.4763 23.0348V20.6226L13.262 21.6846C13.7251 21.9823 14.2337 21.9555 14.5262 21.484C14.7772 21.0806 14.6631 20.5687 14.1714 20.2826L11.4763 18.7174V17.2692L11.225 13.2206L14.63 15.453L15.8907 16.1723L15.8989 19.2872C15.8978 19.8523 16.2828 20.2261 16.7457 20.2092C17.3066 20.1923 17.5876 19.7583 17.5517 19.2112L17.5234 17.1164L19.6222 18.3358C20.1404 18.6391 20.6478 18.5072 20.9256 18.022C21.2033 17.5219 21.0554 16.9952 20.5585 16.7133L18.4618 15.5013L20.2834 14.478C20.7707 14.2265 21.0024 13.7754 20.7416 13.2902C20.4988 12.8667 20.0113 12.7212 19.5207 12.998L16.8196 14.5477L15.5567 13.8284L11.8876 12.0122L15.5664 10.1939L16.81 9.4671L19.5111 11.0189C20.0017 11.2978 20.518 11.148 20.7533 10.7299C21.0046 10.2511 20.7728 9.79031 20.2834 9.53672L18.4618 8.52304L20.5585 7.31108C21.0671 7.0153 21.215 6.5046 20.9373 6.00234C20.6574 5.52141 20.1287 5.38734 19.6318 5.68851L17.5234 6.88875L17.5421 4.80562C17.5801 4.24476 17.3066 3.82992 16.7575 3.81515C16.2753 3.80039 15.8978 4.16461 15.8989 4.72757L15.8811 7.83703L14.63 8.56594L11.225 10.808L11.4763 6.74554V5.29734L14.1714 3.73968C14.6631 3.44601 14.7751 2.94375 14.5262 2.53078C14.2379 2.06883 13.7251 2.0325 13.262 2.33976L11.4763 3.40172V0.979917C11.4763 0.400076 11.1231 0 10.54 0C9.98027 0 9.61324 0.402185 9.61324 0.979917V3.40172L7.7987 2.33976C7.33347 2.0325 6.8462 2.06883 6.54199 2.53078C6.29308 2.94375 6.41683 3.44601 6.90855 3.73007L9.61324 5.29734V6.74554L9.85488 10.8101L6.44777 8.56594L5.18917 7.83492L5.18097 4.72757C5.18003 4.16461 4.80456 3.80039 4.33207 3.81515C3.77332 3.82992 3.4923 4.25648 3.52605 4.80351L3.55652 6.88875L1.44808 5.68851C0.960815 5.39695 0.412849 5.52141 0.142616 6.00234C-0.144727 6.5046 0.012773 7.02913 0.519255 7.31108L2.60848 8.52304L0.796517 9.53672C0.307145 9.79031 0.0774593 10.2244 0.328708 10.732C0.554411 11.1576 1.06863 11.2978 1.56878 11.0189L4.25613 9.47671L5.51144 10.1939L9.1827 12.0122L5.51144 13.8284L4.25824 14.5573L1.55917 12.9959C1.06863 12.7148 0.561911 12.8667 0.345818 13.2827C0.0849594 13.7925 0.307145 14.2244 0.796517 14.478L2.61809 15.5013L0.521364 16.7133C0.0244916 16.9952 -0.137226 17.5315 0.142616 18.0124C0.432068 18.5168 0.958706 18.6295 1.44808 18.3358L3.55652 17.1356L3.52605 19.2091C3.4902 19.7583 3.77332 20.1944 4.32246 20.2092C4.79706 20.224 5.18003 19.8501 5.18097 19.2872L5.19878 16.1681L6.44777 15.4584L9.85488 13.2164L9.61324 17.2692V18.7174L6.90855 20.2826C6.41683 20.5687 6.29519 21.0806 6.54199 21.484C6.84198 21.9555 7.33347 21.9823 7.7987 21.6846L9.61324 20.613V23.0348C9.61324 23.6105 9.98027 24.0244 10.54 24.0244Z" fill="#1D1D1D"/>
</g>
</g>
</svg>
