<svg width="31" height="24" viewBox="0 0 31 24" fill="none" xmlns="http://www.w3.org/2000/svg">
<g id="cup.and.saucer.fill">
<g id="Group" opacity="0.6">
<path id="Vector" d="M15.0176 17.5467H16.1039C22.0919 17.5467 26.0897 13.4815 26.0897 7.27875V4.87243C26.0897 1.97579 21.8524 0.0309448 15.5618 0.0309448C9.27117 0.0309448 5.0339 1.97579 5.0339 4.87243V7.27875C5.0339 13.3043 9.01992 17.5467 15.0176 17.5467ZM15.5618 7.62423C10.7435 7.62423 7.12358 6.40524 7.12358 4.87243C7.12358 3.34711 10.7414 2.12062 15.5618 2.12062C20.3939 2.12062 24.0096 3.34711 24.0096 4.87243C24.0096 6.40524 20.3918 7.62423 15.5618 7.62423ZM24.7249 12.2447H25.7308C28.4053 12.2447 30.0157 10.8356 30.0157 8.50313C30.0157 6.18657 28.3915 4.7679 25.7308 4.7679H24.869V6.80789H25.7308C27.1537 6.80789 27.9661 7.43484 27.9661 8.50313C27.9661 9.56602 27.1516 10.2047 25.7308 10.2047H24.7249V12.2447ZM15.499 23.2612C24.5866 23.2612 30.9958 20.6646 30.9958 16.8605C30.9958 15.4308 30.0654 14.1684 28.4114 13.148C27.6745 13.4726 26.8504 13.6556 25.9167 13.6854C24.0091 17.0053 20.5209 18.9895 16.1039 18.9895H15.0176C10.0387 18.9895 6.17367 16.3336 4.49156 12.173C1.6418 13.3062 0 14.9337 0 16.8605C0 20.6646 6.42093 23.2612 15.499 23.2612Z" fill="#1C1C1E"/>
</g>
</g>
</svg>
