<svg width="32" height="18" viewBox="0 0 32 18" fill="none" xmlns="http://www.w3.org/2000/svg">
<g id="dumbbell.fill">
<g id="Group" opacity="0.6">
<path id="Vector" d="M1.79484 15.2686C2.81577 15.2686 3.59929 14.4851 3.59929 13.4876V4.50163C3.59929 3.4903 2.81577 2.69929 1.79484 2.69929C0.785623 2.69929 0 3.4903 0 4.50163V13.4876C0 14.4851 0.785623 15.2686 1.79484 15.2686ZM7.68186 17.9892C9.36701 17.9892 10.5286 16.8386 10.5286 15.2144V2.78647C10.5286 1.15265 9.36701 0 7.68186 0C6.00421 0 4.84476 1.15265 4.84476 2.78647V15.2144C4.84476 16.8386 6.00421 17.9892 7.68186 17.9892ZM11.8626 11.4293H19.2581V6.55992H11.8626V11.4293ZM23.4368 17.9892C25.1261 17.9892 26.2856 16.8386 26.2856 15.2144V2.78647C26.2856 1.15265 25.1261 0 23.4368 0C21.7612 0 20.6018 1.15265 20.6018 2.78647V15.2144C20.6018 16.8386 21.7612 17.9892 23.4368 17.9892ZM29.2256 15.2686C30.2369 15.2686 31.0321 14.4851 31.0321 13.4876V4.50163C31.0321 3.4903 30.2369 2.69929 29.2256 2.69929C28.2164 2.69929 27.4328 3.4903 27.4328 4.50163V13.4876C27.4328 14.4851 28.2164 15.2686 29.2256 15.2686Z" fill="#1C1C1E"/>
</g>
</g>
</svg>
