<svg width="19" height="15" viewBox="0 0 19 15" fill="none" xmlns="http://www.w3.org/2000/svg">
<g id="envelope">
<g id="Group">
<path id="Vector" d="M3.28728 14.6748H16.1086C17.633 14.6748 18.5187 13.7891 18.5187 12.0923V3.30473C18.5187 1.61445 17.6265 0.72876 15.9087 0.72876H3.08737C1.5644 0.72876 0.678711 1.60793 0.678711 3.30473V12.0923C0.678711 13.7957 1.57092 14.6748 3.28728 14.6748ZM3.28394 13.2005C2.54313 13.2005 2.14012 12.8191 2.14012 12.0422V3.35483C2.14012 2.58586 2.54313 2.20305 3.28394 2.20305H15.912C16.6412 2.20305 17.0573 2.58586 17.0573 3.36135V12.0487C17.0573 12.8191 16.6412 13.2005 15.912 13.2005H3.28394ZM9.61102 9.86469C10.1991 9.86469 10.7614 9.61972 11.3324 9.05671L17.7307 2.76542L16.7792 1.80451L10.5217 7.98532C10.1898 8.31578 9.90396 8.4597 9.61102 8.4597C9.31156 8.4597 9.02718 8.30927 8.70038 7.98532L2.41685 1.77842L1.4588 2.73791L7.88833 9.05671C8.4607 9.61972 9.01639 9.86469 9.61102 9.86469ZM16.6796 13.4828L17.6325 12.5219L12.552 7.49353L11.5976 8.44647L16.6796 13.4828ZM1.58301 12.5284L2.5374 13.4893L7.62443 8.44647L6.66498 7.49353L1.58301 12.5284Z" fill="white"/>
</g>
</g>
</svg>
