<svg width="17" height="16" viewBox="0 0 17 16" fill="none" xmlns="http://www.w3.org/2000/svg">
<g clip-path="url(#clip0_602_15067)">
<path d="M0.357178 5.47548C0.357178 8.87305 3.2075 12.2278 7.65379 15.0906C7.89088 15.2412 8.18531 15.3955 8.38949 15.3955C8.59225 15.3955 8.88811 15.2412 9.13172 15.0906C13.5714 12.2278 16.4218 8.87305 16.4218 5.47548C16.4218 2.55026 14.4021 0.520752 11.8013 0.520752C10.2901 0.520752 9.10457 1.21624 8.38949 2.26399C7.68751 1.22276 6.48738 0.520752 4.97761 0.520752C2.37682 0.520752 0.357178 2.55026 0.357178 5.47548Z" fill="#F7604B"/>
<path d="M0.357178 5.47548C0.357178 8.87305 3.2075 12.2278 7.65379 15.0906C7.89088 15.2412 8.18531 15.3955 8.38949 15.3955C8.59225 15.3955 8.88811 15.2412 9.13172 15.0906C13.5714 12.2278 16.4218 8.87305 16.4218 5.47548C16.4218 2.55026 14.4021 0.520752 11.8013 0.520752C10.2901 0.520752 9.10457 1.21624 8.38949 2.26399C7.68751 1.22276 6.48738 0.520752 4.97761 0.520752C2.37682 0.520752 0.357178 2.55026 0.357178 5.47548ZM1.95806 5.46833C1.95806 3.45042 3.2843 2.09588 5.06333 2.09588C6.49962 2.09588 7.30975 2.96614 7.8087 3.72556C8.02768 4.0465 8.18002 4.14972 8.38949 4.14972C8.59897 4.14972 8.734 4.03855 8.96743 3.72556C9.50608 2.97775 10.2859 2.09588 11.7156 2.09588C13.4946 2.09588 14.8195 3.45042 14.8195 5.46833C14.8195 8.28338 11.8861 11.392 8.54217 13.6169C8.47126 13.6669 8.42132 13.7023 8.38949 13.7023C8.35767 13.7023 8.30773 13.6669 8.24333 13.6169C4.8914 11.392 1.95806 8.28338 1.95806 5.46833Z" fill="white"/>
</g>
<defs>
<clipPath id="clip0_602_15067">
<rect width="17" height="16" fill="white"/>
</clipPath>
</defs>
</svg>
