<svg width="19" height="20" viewBox="0 0 19 20" fill="none" xmlns="http://www.w3.org/2000/svg">
<path d="M1.35715 7.97548C1.35715 11.3731 4.20747 14.7278 8.65376 17.5906C8.89085 17.7412 9.18528 17.8955 9.38946 17.8955C9.59222 17.8955 9.88808 17.7412 10.1317 17.5906C14.5714 14.7278 17.4218 11.3731 17.4218 7.97548C17.4218 5.05026 15.4021 3.02075 12.8013 3.02075C11.2901 3.02075 10.1045 3.71624 9.38946 4.76399C8.68748 3.72276 7.48735 3.02075 5.97758 3.02075C3.37679 3.02075 1.35715 5.05026 1.35715 7.97548ZM2.95803 7.96833C2.95803 5.95042 4.28427 4.59588 6.0633 4.59588C7.49959 4.59588 8.30972 5.46614 8.80867 6.22556C9.02765 6.5465 9.17999 6.64972 9.38946 6.64972C9.59894 6.64972 9.73397 6.53855 9.9674 6.22556C10.5061 5.47775 11.2859 4.59588 12.7156 4.59588C14.4946 4.59588 15.8195 5.95042 15.8195 7.96833C15.8195 10.7834 12.8861 13.892 9.54214 16.1169C9.47123 16.1669 9.42129 16.2023 9.38946 16.2023C9.35764 16.2023 9.3077 16.1669 9.2433 16.1169C5.89137 13.892 2.95803 10.7834 2.95803 7.96833Z" fill="#1D1D1D"/>
</svg>
