<svg width="17" height="16" viewBox="0 0 17 16" fill="none" xmlns="http://www.w3.org/2000/svg">
<g id="heart">
<g id="Group">
<path id="Vector" d="M0.357147 5.47548C0.357147 8.87305 3.20747 12.2278 7.65376 15.0906C7.89085 15.2412 8.18528 15.3955 8.38946 15.3955C8.59222 15.3955 8.88808 15.2412 9.13169 15.0906C13.5714 12.2278 16.4218 8.87305 16.4218 5.47548C16.4218 2.55026 14.4021 0.520752 11.8013 0.520752C10.2901 0.520752 9.10454 1.21624 8.38946 2.26399C7.68748 1.22276 6.48735 0.520752 4.97758 0.520752C2.37679 0.520752 0.357147 2.55026 0.357147 5.47548ZM1.95803 5.46833C1.95803 3.45042 3.28427 2.09588 5.0633 2.09588C6.49959 2.09588 7.30972 2.96614 7.80867 3.72556C8.02765 4.0465 8.17999 4.14972 8.38946 4.14972C8.59894 4.14972 8.73397 4.03855 8.9674 3.72556C9.50605 2.97775 10.2859 2.09588 11.7156 2.09588C13.4946 2.09588 14.8195 3.45042 14.8195 5.46833C14.8195 8.28338 11.8861 11.392 8.54214 13.6169C8.47123 13.6669 8.42129 13.7023 8.38946 13.7023C8.35764 13.7023 8.3077 13.6669 8.2433 13.6169C4.89137 11.392 1.95803 8.28338 1.95803 5.46833Z" fill="white"/>
</g>
</g>
</svg>
