<svg width="17" height="19" viewBox="0 0 17 19" fill="none" xmlns="http://www.w3.org/2000/svg">
<g clip-path="url(#clip0_602_15043)">
<path fill-rule="evenodd" clip-rule="evenodd" d="M14.2259 14.0914L13.1499 13.4721V14.7284C13.1499 16.1823 12.2187 16.659 10.9901 15.9584L9.74311 15.2339V16.7235C9.74311 18.1774 8.81048 18.6606 7.58335 17.9535L1.42274 14.3913C0.583333 13.9102 0.357178 13.4484 0.357178 12.531V5.2028C0.357178 3.92126 1.48509 3.57773 2.38541 4.09175L3.76538 4.88986V3.20912C3.76538 1.92615 4.89329 1.57753 5.79219 2.09663L6.99976 2.79378V1.34712C6.99976 0.057631 8.12765 -0.284462 9.02798 0.228121L15.3074 3.85981C16.1067 4.32627 16.3857 4.80975 16.3857 5.73981V12.8613C16.3857 14.3204 15.4531 14.7984 14.2259 14.0914Z" fill="#F7604B"/>
<path fill-rule="evenodd" clip-rule="evenodd" d="M14.2259 14.0914L13.1499 13.4721V14.7284C13.1499 16.1823 12.2187 16.659 10.9901 15.9584L9.74311 15.2339V16.7235C9.74311 18.1774 8.81048 18.6606 7.58335 17.9535L1.42274 14.3913C0.583333 13.9102 0.357178 13.4484 0.357178 12.531V5.2028C0.357178 3.92126 1.48509 3.57773 2.38541 4.09175L3.76538 4.88986V3.20912C3.76538 1.92615 4.89329 1.57753 5.79219 2.09663L6.99976 2.79378V1.34712C6.99976 0.057631 8.12765 -0.284462 9.02798 0.228121L15.3074 3.85981C16.1067 4.32627 16.3857 4.80975 16.3857 5.73981V12.8613C16.3857 14.3204 15.4531 14.7984 14.2259 14.0914ZM13.1499 7.60181V11.6715L14.7298 12.5895C14.7999 12.6293 14.8505 12.6011 14.8505 12.5245V5.77607C14.8505 5.4599 14.7679 5.35859 14.5278 5.21752L8.66583 1.83172C8.59064 1.78686 8.53493 1.82663 8.53493 1.90328V3.68007L12.0715 5.7218C12.8788 6.19478 13.1499 6.67827 13.1499 7.60181ZM5.29916 5.77692V3.76384C5.29916 3.69514 5.36134 3.64886 5.43148 3.69371L11.2919 7.07951C11.5321 7.22059 11.6161 7.3219 11.6161 7.63805V14.3864C11.6161 14.4617 11.5641 14.4899 11.4954 14.4501L9.74311 13.4346V9.5969C9.74311 8.67336 9.46415 8.18988 8.66479 7.72343L5.29916 5.77692ZM8.20791 9.6332C8.20791 9.31699 8.12533 9.21568 7.88518 9.07318L2.02327 5.68739C1.94805 5.65049 1.89238 5.69025 1.89238 5.75896V12.4772C1.89238 12.768 1.95823 12.8895 2.20713 13.0357L8.08719 16.4517C8.15729 16.4915 8.20791 16.4568 8.20791 16.3816V9.6332Z" fill="white"/>
</g>
<defs>
<clipPath id="clip0_602_15043">
<rect width="17" height="19" fill="white"/>
</clipPath>
</defs>
</svg>
