<svg width="19" height="20" viewBox="0 0 19 20" fill="none" xmlns="http://www.w3.org/2000/svg">
<path d="M13.4149 13.5491L15.2259 14.5914C16.453 15.2984 17.3857 14.8204 17.3857 13.3613V6.23981C17.3857 5.30975 17.1067 4.82627 16.3073 4.35981L10.028 0.728121C9.12765 0.215538 7.99976 0.557631 7.99976 1.84712V4.31272L9.53493 5.06562V2.40328C9.53493 2.32663 9.59064 2.28686 9.66583 2.33172L15.5277 5.71752C15.7679 5.85859 15.8505 5.9599 15.8505 6.27607V13.0245C15.8505 13.1011 15.7999 13.1293 15.7297 13.0895L13.4149 11.7445V13.5491Z" fill="#1D1D1D"/>
<path d="M9.9187 15.255L11.99 16.4584C13.2186 17.159 14.1498 16.6823 14.1498 15.2284V8.10181C14.1498 7.17827 13.8788 6.69478 13.0715 6.2218L6.79212 2.59663C5.89323 2.07753 4.76532 2.42615 4.76532 3.70912V6.33233L6.2991 7.14136V4.26384C6.2991 4.19514 6.36128 4.14886 6.43142 4.19371L12.2919 7.57951C12.5321 7.72059 12.616 7.8219 12.616 8.13805V14.8864C12.616 14.9617 12.564 14.9899 12.4953 14.9501L9.9187 13.4568V15.255Z" fill="#1D1D1D"/>
<path d="M10.743 10.0969C10.743 9.17336 10.4641 8.68988 9.66473 8.22343L3.38535 4.59175C2.48502 4.07773 1.35712 4.42126 1.35712 5.7028V13.031C1.35712 13.9484 1.58327 14.4102 2.42268 14.8913L8.58329 18.4535C9.81042 19.1606 10.743 18.6774 10.743 17.2235V10.0969ZM8.88512 9.57318C9.12527 9.71568 9.20785 9.81699 9.20785 10.1332V16.8816C9.20785 16.9568 9.15723 16.9915 9.08713 16.9517L3.20707 13.5357C2.95817 13.3895 2.89232 13.268 2.89232 12.9772V6.25896C2.89232 6.19025 2.94799 6.15049 3.02321 6.18739L8.88512 9.57318Z" fill="#1D1D1D"/>
</svg>
