<svg width="17" height="19" viewBox="0 0 17 19" fill="none" xmlns="http://www.w3.org/2000/svg">
<g id="square.3.layers.3d.down.left">
<g id="Group">
<path id="Vector" d="M12.415 13.0491L14.2259 14.0914C15.4531 14.7984 16.3857 14.3204 16.3857 12.8613V5.73981C16.3857 4.80975 16.1067 4.32627 15.3074 3.85981L9.02801 0.228121C8.12768 -0.284462 6.99979 0.0576309 6.99979 1.34712V3.81272L8.53496 4.56562V1.90328C8.53496 1.82663 8.59067 1.78686 8.66586 1.83172L14.5278 5.21752C14.7679 5.35859 14.8505 5.4599 14.8505 5.77607V12.5245C14.8505 12.6011 14.7999 12.6293 14.7298 12.5895L12.415 11.2445V13.0491Z" fill="white"/>
<path id="Vector_2" d="M8.91876 14.755L10.9901 15.9584C12.2187 16.659 13.1499 16.1823 13.1499 14.7284V7.60181C13.1499 6.67827 12.8788 6.19478 12.0715 5.7218L5.79219 2.09663C4.89329 1.57753 3.76538 1.92615 3.76538 3.20912V5.83233L5.29916 6.64136V3.76384C5.29916 3.69514 5.36134 3.64886 5.43148 3.69371L11.2919 7.07951C11.5321 7.22059 11.6161 7.3219 11.6161 7.63805V14.3864C11.6161 14.4617 11.5641 14.4899 11.4954 14.4501L8.91876 12.9568V14.755Z" fill="white"/>
<path id="Vector_3" d="M9.74308 9.5969C9.74308 8.67336 9.46412 8.18988 8.66476 7.72343L2.38538 4.09175C1.48506 3.57773 0.357147 3.92126 0.357147 5.2028V12.531C0.357147 13.4484 0.583302 13.9102 1.42271 14.3913L7.58332 17.9535C8.81045 18.6606 9.74308 18.1774 9.74308 16.7235V9.5969ZM7.88515 9.07318C8.1253 9.21568 8.20788 9.31699 8.20788 9.6332V16.3816C8.20788 16.4568 8.15726 16.4915 8.08716 16.4517L2.2071 13.0357C1.9582 12.8895 1.89235 12.768 1.89235 12.4772V5.75896C1.89235 5.69025 1.94802 5.65049 2.02324 5.68739L7.88515 9.07318Z" fill="white"/>
</g>
</g>
</svg>
