<svg width="17" height="16" viewBox="0 0 17 16" fill="none" xmlns="http://www.w3.org/2000/svg">
<g id="location">
<g id="Group">
<path id="Vector" d="M1.32212 6.17941C0.0644325 6.75704 0.390941 8.4729 1.76425 8.47941L7.51543 8.49902C7.60229 8.49902 7.61328 8.50567 7.61328 8.59823L7.62631 14.3103C7.63282 15.7213 9.36969 15.9826 9.96833 14.6779L15.8262 2.02066C16.45 0.656255 15.3973 -0.321835 14.0394 0.308437L1.32212 6.17941ZM3.28687 6.97699C3.25077 6.97699 3.24139 6.94516 3.28544 6.92643L14.0312 2.01603C14.0883 1.99218 14.1179 2.00666 14.0897 2.07599L9.15323 12.8138C9.14244 12.8485 9.11062 12.8391 9.11062 12.8044L9.14611 7.70048C9.14753 7.21028 8.88384 6.94516 8.38712 6.94659L3.28687 6.97699Z" fill="white"/>
</g>
</g>
</svg>
