<svg width="20" height="20" viewBox="0 0 20 20" fill="none" xmlns="http://www.w3.org/2000/svg">
<path d="M3.46878 8.67965C2.21109 9.25728 2.5376 10.9731 3.91091 10.9797L9.66209 10.9993C9.74895 10.9993 9.75994 11.0059 9.75994 11.0985L9.77297 16.8106C9.77948 18.2216 11.5164 18.4829 12.115 17.1781L17.9729 4.5209C18.5966 3.1565 17.544 2.17841 16.1861 2.80868L3.46878 8.67965ZM5.43353 9.47723C5.39743 9.47723 5.38805 9.44541 5.4321 9.42668L16.1779 4.51628C16.2349 4.49243 16.2645 4.5069 16.2364 4.57624L11.2999 15.314C11.2891 15.3487 11.2573 15.3393 11.2573 15.3047L11.2928 10.2007C11.2942 9.71053 11.0305 9.44541 10.5338 9.44683L5.43353 9.47723Z" fill="#1D1D1D"/>
</svg>
