<svg width="20" height="25" viewBox="0 0 20 25" fill="none" xmlns="http://www.w3.org/2000/svg">
<g id="lock.shield">
<g id="Group" opacity="0.6">
<path id="Vector" d="M9.89648 24.4195C10.103 24.4195 10.4203 24.3387 10.7175 24.1767C17.4572 20.4975 19.793 18.8142 19.793 14.539V5.6796C19.793 4.29094 19.2551 3.80086 18.0923 3.30516C16.7897 2.76258 12.3987 1.21828 11.1213 0.782108C10.7332 0.657656 10.29 0.576797 9.89648 0.576797C9.50296 0.576797 9.05977 0.678984 8.68125 0.782108C7.40391 1.1468 3.00328 2.77219 1.70062 3.30516C0.5475 3.79125 0 4.29094 0 5.6796V14.539C0 18.8142 2.34539 20.4879 9.07546 24.1767C9.38226 24.3387 9.68999 24.4195 9.89648 24.4195ZM9.89648 21.9588C9.72796 21.9588 9.56155 21.897 9.22054 21.6902C3.86343 18.4238 2.20077 17.5451 2.20077 14.1012V6.05343C2.20077 5.64023 2.27952 5.47523 2.61186 5.34421C4.34671 4.65585 7.71515 3.53155 9.2843 2.91491C9.54773 2.816 9.7296 2.78202 9.89648 2.78202C10.0634 2.78202 10.2431 2.82561 10.5087 2.91491C12.0778 3.53155 15.427 4.72312 17.1907 5.34421C17.5113 5.46562 17.5922 5.64023 17.5922 6.05343V14.1012C17.5922 17.5641 15.8705 18.4943 10.5724 21.6902C10.241 21.8949 10.065 21.9588 9.89648 21.9588Z" fill="#1C1C1E"/>
<path id="Vector_2" d="M5.69977 16.4295C5.69977 17.3189 6.09703 17.7354 6.91828 17.7354H12.8789C13.7002 17.7354 14.0974 17.3189 14.0974 16.4295V11.8582C14.0974 11.059 13.7681 10.6446 13.1105 10.5809V9.25711C13.1105 7.10297 11.8151 5.65945 9.8986 5.65945C7.98211 5.65945 6.68883 7.10297 6.68883 9.25711V10.5787C6.02696 10.6446 5.69977 11.059 5.69977 11.8582V16.4295ZM8.05523 10.5565V9.13875C8.05523 7.83609 8.79305 6.99069 9.8986 6.99069C11.0062 6.99069 11.742 7.83398 11.742 9.13875V10.5565H8.05523Z" fill="#1C1C1E"/>
</g>
</g>
</svg>
