<svg width="19" height="20" viewBox="0 0 19 20" fill="none" xmlns="http://www.w3.org/2000/svg">
<path d="M1.35712 8.32884C1.35712 11.9007 4.25975 14.8019 7.83021 14.8019C9.15804 14.8019 10.3766 14.3939 11.3926 13.705L15.0459 17.3648C15.2745 17.5936 15.5775 17.7025 15.8964 17.7025C16.5731 17.7025 17.0571 17.1911 17.0571 16.5223C17.0571 16.2077 16.9416 15.9141 16.7231 15.6956L13.0979 12.0495C13.8569 11.0053 14.3033 9.72169 14.3033 8.32884C14.3033 4.75839 11.4007 1.85718 7.83021 1.85718C4.25975 1.85718 1.35712 4.75839 1.35712 8.32884ZM3.04324 8.32884C3.04324 5.68765 5.18902 3.54331 7.83021 3.54331C10.4714 3.54331 12.6157 5.68765 12.6157 8.32884C12.6157 10.9715 10.4714 13.1158 7.83021 13.1158C5.18902 13.1158 3.04324 10.9715 3.04324 8.32884Z" fill="#1D1D1D"/>
</svg>
