<svg width="17" height="17" viewBox="0 0 17 17" fill="none" xmlns="http://www.w3.org/2000/svg">
<g id="magnifyingglass">
<g id="Group">
<path id="Vector" d="M0.357143 6.82908C0.357143 10.401 3.25978 13.3022 6.83023 13.3022C8.15807 13.3022 9.37665 12.8941 10.3926 12.2053L14.0459 15.8651C14.2746 16.0938 14.5776 16.2027 14.8964 16.2027C15.5732 16.2027 16.0571 15.6913 16.0571 15.0225C16.0571 14.7079 15.9416 14.4144 15.7231 14.1959L12.0979 10.5497C12.8569 9.50558 13.3033 8.22193 13.3033 6.82908C13.3033 3.25863 10.4007 0.357422 6.83023 0.357422C3.25978 0.357422 0.357143 3.25863 0.357143 6.82908ZM2.04327 6.82908C2.04327 4.1879 4.18905 2.04355 6.83023 2.04355C9.47144 2.04355 11.6157 4.1879 11.6157 6.82908C11.6157 9.47172 9.47144 11.616 6.83023 11.616C4.18905 11.616 2.04327 9.47172 2.04327 6.82908Z" fill="white"/>
</g>
</g>
</svg>
