<svg width="29" height="18" viewBox="0 0 29 18" fill="none" xmlns="http://www.w3.org/2000/svg">
<g id="figure.pool.swim">
<g id="Group" opacity="0.6">
<path id="Vector" d="M18.8723 6.18398C20.3283 6.18398 21.5083 5.01351 21.5083 3.55758C21.5083 2.10164 20.3283 0.919455 18.8723 0.919455C17.4164 0.919455 16.2438 2.10164 16.2438 3.55758C16.2438 5.01351 17.4164 6.18398 18.8723 6.18398ZM14.0552 11.0566C16.0725 11.0566 16.7428 9.70757 18.7303 9.27257L10.4299 0.635625C9.88148 0.0733607 9.07429 0.000938892 8.41195 0.465235L3.76758 3.76851C2.93695 4.35422 3.02109 5.23054 3.49922 5.74804C3.89531 6.19101 4.61836 6.37523 5.30624 5.88538L9.03914 3.24656L11.1169 5.38289C11.3555 5.62898 11.4089 5.98921 11.0562 6.22687L6.38063 9.29389C6.93095 9.20061 7.56493 9.15093 8.36109 9.17015C11.1225 9.26624 11.7223 11.0566 14.0552 11.0566ZM0.727966 14.2938H1.95375C5.15648 14.2938 5.85866 12.3593 8.00554 12.3593C10.0765 12.3593 10.8504 14.2938 14.0552 14.2938C17.2718 14.2938 18.0361 12.3593 20.1166 12.3593C22.2614 12.3593 22.9561 14.2938 26.1684 14.2938H27.3942C27.7976 14.2938 28.1222 13.9809 28.1222 13.5776C28.1222 13.1742 27.7976 12.8496 27.3942 12.8496H26.1684C23.9416 12.8496 23.1905 10.9151 20.1166 10.9151C17.107 10.9151 16.282 12.8496 14.0552 12.8496C11.8305 12.8496 11.0152 10.9151 8.00554 10.9151C4.93172 10.9151 4.17843 12.8496 1.95375 12.8496H0.727966C0.314999 12.8496 0 13.1742 0 13.5776C0 13.9809 0.314999 14.2938 0.727966 14.2938ZM0.998905 17.6929C1.4025 17.6929 1.72406 17.3714 1.72406 16.9774C1.72406 16.5717 1.4025 16.2501 0.998905 16.2501C0.602812 16.2501 0.28125 16.5717 0.28125 16.9774C0.28125 17.3714 0.602812 17.6929 0.998905 17.6929ZM3.23367 17.2924C3.62765 17.2924 3.94921 16.9804 3.94921 16.5747C3.94921 16.1712 3.62765 15.8592 3.23367 15.8592C2.82797 15.8592 2.5064 16.1712 2.5064 16.5747C2.5064 16.9804 2.82797 17.2924 3.23367 17.2924ZM5.30554 16.3188C5.71125 16.3188 6.03281 15.9972 6.03281 15.5915C6.03281 15.1976 5.71125 14.876 5.30554 14.876C4.91156 14.876 4.59 15.1976 4.59 15.5915C4.59 15.9972 4.91156 16.3188 5.30554 16.3188ZM7.54148 15.7598C7.94507 15.7598 8.26663 15.4383 8.26663 15.0443C8.26663 14.6386 7.94507 14.317 7.54148 14.317C7.14539 14.317 6.82383 14.6386 6.82383 15.0443C6.82383 15.4383 7.14539 15.7598 7.54148 15.7598ZM9.7732 16.3188C10.1789 16.3188 10.4909 15.9972 10.4909 15.5915C10.4909 15.1976 10.1789 14.876 9.7732 14.876C9.3675 14.876 9.05765 15.1976 9.05765 15.5915C9.05765 15.9972 9.3675 16.3188 9.7732 16.3188ZM11.8664 17.2924C12.27 17.2924 12.5916 16.9804 12.5916 16.5747C12.5916 16.1712 12.27 15.8592 11.8664 15.8592C11.4703 15.8592 11.1487 16.1712 11.1487 16.5747C11.1487 16.9804 11.4703 17.2924 11.8664 17.2924ZM14.0766 17.6929C14.4705 17.6929 14.7921 17.3714 14.7921 16.9774C14.7921 16.5717 14.4705 16.2501 14.0766 16.2501C13.6709 16.2501 13.3493 16.5717 13.3493 16.9774C13.3493 17.3714 13.6709 17.6929 14.0766 17.6929ZM16.275 17.2924C16.6807 17.2924 16.9926 16.9804 16.9926 16.5747C16.9926 16.1712 16.6807 15.8592 16.275 15.8592C15.8714 15.8592 15.5594 16.1712 15.5594 16.5747C15.5594 16.9804 15.8714 17.2924 16.275 17.2924ZM18.3682 16.3188C18.7739 16.3188 19.0933 15.9972 19.0933 15.5915C19.0933 15.1976 18.7739 14.876 18.3682 14.876C17.9721 14.876 17.6505 15.1976 17.6505 15.5915C17.6505 15.9972 17.9721 16.3188 18.3682 16.3188ZM20.5999 15.7598C21.0056 15.7598 21.3176 15.4383 21.3176 15.0443C21.3176 14.6386 21.0056 14.317 20.5999 14.317C20.1963 14.317 19.8844 14.6386 19.8844 15.0443C19.8844 15.4383 20.1963 15.7598 20.5999 15.7598ZM22.8358 16.3188C23.2394 16.3188 23.5514 15.9972 23.5514 15.5915C23.5514 15.1976 23.2394 14.876 22.8358 14.876C22.4301 14.876 22.1182 15.1976 22.1182 15.5915C22.1182 15.9972 22.4301 16.3188 22.8358 16.3188ZM24.9173 17.2924C25.323 17.2924 25.635 16.9804 25.635 16.5747C25.635 16.1712 25.323 15.8592 24.9173 15.8592C24.5137 15.8592 24.2018 16.1712 24.2018 16.5747C24.2018 16.9804 24.5137 17.2924 24.9173 17.2924ZM27.1329 17.6929C27.5386 17.6929 27.8601 17.3714 27.8601 16.9774C27.8601 16.5717 27.5386 16.2501 27.1329 16.2501C26.7389 16.2501 26.4173 16.5717 26.4173 16.9774C26.4173 17.3714 26.7389 17.6929 27.1329 17.6929Z" fill="#1C1C1E"/>
</g>
</g>
</svg>
