<svg width="18" height="28" viewBox="0 0 18 28" fill="none" xmlns="http://www.w3.org/2000/svg">
<g id="refrigerator">
<g id="Group" opacity="0.6">
<path id="Vector" d="M2.89265 27.0511H14.6266C16.3589 27.0511 17.531 25.8534 17.531 24.0689V2.98218C17.531 1.19765 16.3589 0 14.6266 0H2.89265C1.17 0 0 1.19765 0 2.98218V24.0689C0 25.8534 1.17 27.0511 2.89265 27.0511ZM3.06444 24.829C2.56007 24.829 2.22421 24.4952 2.22421 23.9791V3.08155C2.22421 2.56546 2.56007 2.2221 3.06444 2.2221H14.4897C14.9719 2.2221 15.3068 2.55702 15.3068 3.05624V24.0044C15.3068 24.5037 14.9719 24.829 14.4897 24.829H3.06444ZM4.45873 7.52178C4.85037 7.52178 5.12061 7.24194 5.12061 6.8503V4.23092C5.12061 3.83928 4.85037 3.56155 4.45873 3.56155C4.0671 3.56155 3.78725 3.83928 3.78725 4.23092V6.8503C3.78725 7.24194 4.0671 7.52178 4.45873 7.52178ZM1.67296 10.83H15.9267V9.1978H1.67296V10.83ZM4.45873 15.8402C4.85037 15.8402 5.12061 15.5721 5.12061 15.1783V12.5515C5.12061 12.1577 4.85037 11.8875 4.45873 11.8875C4.0671 11.8875 3.78725 12.1577 3.78725 12.5515V15.1783C3.78725 15.5721 4.0671 15.8402 4.45873 15.8402ZM1.67296 23.1412H15.9267V21.5112H1.67296V23.1412Z" fill="#1C1C1E"/>
</g>
</g>
</svg>
