<svg width="29" height="25" viewBox="0 0 29 25" fill="none" xmlns="http://www.w3.org/2000/svg">
<g id="play.display">
<g id="Group" opacity="0.6">
<path id="Vector" d="M2.92101 20.67H25.5131C27.344 20.67 28.4437 19.5703 28.4437 17.7394V3.62109C28.4437 1.79227 27.344 0.702194 25.5131 0.702194H2.92101C1.09968 0.702194 0 1.79227 0 3.62109V17.7394C0 19.5703 1.09968 20.67 2.92101 20.67ZM3.05741 18.4226C2.56077 18.4226 2.24741 18.1092 2.24741 17.6126V3.7596C2.24741 3.25124 2.56077 2.94749 3.05741 2.94749H25.3863C25.883 2.94749 26.1963 3.25124 26.1963 3.7596V17.6126C26.1963 18.1092 25.883 18.4226 25.3863 18.4226H3.05741ZM10.4006 23.3494H18.0431V20.4312H10.4006V23.3494ZM10.343 24.9061H18.1008C18.6839 24.9061 19.1564 24.423 19.1564 23.843C19.1564 23.2629 18.6839 22.7819 18.1008 22.7819H10.343C9.75984 22.7819 9.27773 23.2629 9.27773 23.843C9.27773 24.423 9.75984 24.9061 10.343 24.9061Z" fill="#1C1C1E"/>
<path id="Vector_2" d="M11.2544 14.418C11.2544 14.9208 11.7794 15.1176 12.199 14.8823L18.4823 11.194C18.8901 10.9512 18.8763 10.4156 18.4727 10.1824L12.199 6.49734C11.7794 6.25031 11.2544 6.4514 11.2544 6.95835V14.418Z" fill="#1C1C1E"/>
</g>
</g>
</svg>
