<svg width="16" height="16" viewBox="0 0 16 16" fill="none" xmlns="http://www.w3.org/2000/svg">
<g id="vk-logo-of-social-network 1" clip-path="url(#clip0_373_5573)">
<g id="Group">
<g id="Group_2">
<path id="Vector" d="M14.1864 7.25216C14.414 6.95803 14.5946 6.72203 14.728 6.54398C15.6887 5.26665 16.1052 4.45069 15.9775 4.09494L15.9275 4.01163C15.8942 3.96158 15.8079 3.91563 15.6692 3.87403C15.5303 3.83246 15.3527 3.82582 15.1362 3.85326L12.737 3.87018C12.6815 3.86465 12.6259 3.86594 12.5704 3.87403C12.5148 3.88248 12.4788 3.89095 12.462 3.89904C12.4453 3.90751 12.4315 3.9143 12.4204 3.91983L12.3872 3.94484C12.3594 3.9614 12.3289 3.99065 12.2956 4.03243C12.2622 4.07417 12.2343 4.12256 12.2122 4.17829C11.9512 4.85022 11.6542 5.47509 11.3209 6.05268C11.1154 6.39703 10.9265 6.69576 10.7545 6.94811C10.5823 7.20103 10.4379 7.38702 10.3213 7.5062C10.2047 7.62558 10.0991 7.72158 10.0048 7.79353C9.9102 7.866 9.8381 7.89635 9.78827 7.88532C9.73819 7.87429 9.69094 7.86326 9.64661 7.85184C9.56883 7.80201 9.50625 7.73411 9.45918 7.64785C9.41193 7.56198 9.3801 7.4536 9.36333 7.323C9.34677 7.19259 9.33685 7.08003 9.33427 6.98547C9.33132 6.89113 9.3328 6.75795 9.33851 6.58558C9.34404 6.41338 9.34677 6.29698 9.34677 6.23572C9.34677 6.02491 9.35101 5.79573 9.35933 5.54852C9.3676 5.30149 9.3746 5.10558 9.3801 4.96116C9.38563 4.81695 9.38837 4.66409 9.38837 4.50295C9.38837 4.34218 9.37863 4.21562 9.35906 4.12386C9.33959 4.03243 9.31034 3.94358 9.27172 3.85732C9.23274 3.77142 9.17587 3.70463 9.10082 3.65757C9.0258 3.61029 8.93287 3.57296 8.82181 3.54497C8.52729 3.47819 8.15243 3.44251 7.69717 3.43665C6.66414 3.42598 6.00047 3.49256 5.70616 3.63677C5.58954 3.69802 5.48395 3.78116 5.38961 3.88674C5.28955 4.00907 5.27576 4.07583 5.34804 4.0865C5.68133 4.13654 5.91718 4.2561 6.05604 4.44483L6.10609 4.5447C6.14489 4.61717 6.18372 4.74485 6.2227 4.92804C6.26154 5.11126 6.28654 5.31396 6.29776 5.53616C6.32553 5.94156 6.32553 6.2885 6.29776 6.57749C6.26998 6.86645 6.24368 7.09124 6.21868 7.25201C6.19364 7.41314 6.15613 7.54355 6.10627 7.64343C6.05622 7.74367 6.02295 7.80474 6.00621 7.82698C5.98947 7.84905 5.97567 7.86302 5.96464 7.86858C5.89236 7.89617 5.81749 7.91015 5.7397 7.91015C5.66189 7.91015 5.56751 7.87114 5.45642 7.79332C5.34531 7.7159 5.22998 7.60884 5.11078 7.47271C4.99121 7.3368 4.85674 7.14642 4.70664 6.90195C4.55672 6.65786 4.40109 6.36887 4.24014 6.03576L4.10696 5.79405C4.02365 5.63881 3.90976 5.41236 3.76537 5.11529C3.62098 4.81821 3.49313 4.53091 3.38222 4.25298C3.33771 4.13654 3.2711 4.04769 3.18229 3.98644L3.14072 3.96143C3.11295 3.93934 3.06843 3.91563 3.00736 3.89077C2.9461 3.86576 2.88247 3.84773 2.81569 3.83652L0.533136 3.85308C0.2999 3.85308 0.141715 3.90607 0.0583991 4.01163L0.0250969 4.06149C0.00826544 4.08944 0 4.13395 0 4.19485C0 4.2561 0.0167413 4.33097 0.0500435 4.41964C0.383336 5.20287 0.745723 5.95815 1.13714 6.68545C1.52878 7.41314 1.86889 7.99918 2.15767 8.44341C2.44645 8.888 2.74076 9.30701 3.04078 9.70138C3.3408 10.0957 3.53926 10.3483 3.63637 10.4592C3.73348 10.5705 3.80983 10.6539 3.8654 10.7092L4.07363 10.9093C4.20681 11.0425 4.40272 11.2021 4.66099 11.3883C4.91923 11.5744 5.20509 11.7577 5.51909 11.9379C5.83273 12.1186 6.19803 12.2655 6.61446 12.3796C7.03092 12.4936 7.43631 12.5394 7.83068 12.517H8.78869C8.98312 12.5004 9.13022 12.4396 9.23015 12.3338L9.26343 12.2922C9.28549 12.2591 9.30647 12.2076 9.32594 12.1382C9.34527 12.0689 9.35525 11.9923 9.35525 11.9092C9.34951 11.6705 9.36775 11.4549 9.40932 11.2636C9.45089 11.0719 9.49813 10.9277 9.55097 10.8302C9.60375 10.7333 9.66332 10.6512 9.73008 10.5845C9.79671 10.5177 9.84378 10.4778 9.87173 10.4638C9.8995 10.4502 9.92181 10.4404 9.93837 10.4345C10.0715 10.3902 10.2284 10.4332 10.409 10.5637C10.5895 10.6945 10.7589 10.8552 10.9173 11.0469C11.0755 11.2385 11.2656 11.4536 11.4879 11.6925C11.7099 11.9312 11.9043 12.1089 12.071 12.2256L12.2376 12.3258C12.3487 12.3922 12.4929 12.4533 12.6708 12.509C12.8485 12.5644 13.0041 12.5784 13.1373 12.5506L15.2699 12.5171C15.4809 12.5171 15.6448 12.4826 15.7614 12.413C15.878 12.344 15.9474 12.2671 15.9697 12.184C15.9917 12.1007 15.9932 12.0067 15.9739 11.9009C15.9544 11.7955 15.9349 11.7219 15.9156 11.6804C15.8962 11.6388 15.8781 11.6038 15.8613 11.5762C15.5836 11.0765 15.0533 10.4626 14.2702 9.73516L14.2535 9.7186L14.2452 9.71015L14.2369 9.70204H14.2286C13.873 9.36321 13.6482 9.13548 13.5539 9.01868C13.3817 8.79687 13.3427 8.5719 13.4373 8.34419C13.5035 8.17152 13.7533 7.80769 14.1864 7.25216Z" fill="white"/>
</g>
</g>
</g>
<defs>
<clipPath id="clip0_373_5573">
<rect width="16" height="16" fill="white"/>
</clipPath>
</defs>
</svg>
