<svg width="24" height="26" viewBox="0 0 24 26" fill="none" xmlns="http://www.w3.org/2000/svg">
<g id="washer">
<g id="Group" opacity="0.6">
<path id="Vector" d="M2.90226 25.2654H12.0389C11.9517 25.1175 11.8687 24.9633 11.7996 24.7835L11.1497 23.0433H3.06444C2.56967 23.0433 2.22421 22.7095 2.22421 22.1955V3.08155C2.22421 2.56546 2.56967 2.2221 3.06444 2.2221H17.913C18.4195 2.2221 18.7533 2.56546 18.7533 3.08155V15.5482C19.5012 15.2976 20.28 15.2292 20.9796 15.4526V2.98218C20.9796 1.20726 19.8075 0 18.0869 0H2.90226C1.17 0 0 1.20726 0 2.98218V22.2928C0 24.0698 1.17 25.2654 2.90226 25.2654ZM4.80819 5.46725C5.42037 5.46725 5.91326 4.96475 5.91326 4.35256C5.91326 3.74788 5.42037 3.24749 4.80819 3.24749C4.20561 3.24749 3.70311 3.74788 3.70311 4.35256C3.70311 4.96475 4.20561 5.46725 4.80819 5.46725ZM7.94412 5.46725C8.55841 5.46725 9.0513 4.96475 9.0513 4.35256C9.0513 3.74788 8.55841 3.24749 7.94412 3.24749C7.34154 3.24749 6.84865 3.74788 6.84865 4.35256C6.84865 4.96475 7.34154 5.46725 7.94412 5.46725ZM13.8241 5.01561H16.5595C16.9512 5.01561 17.2172 4.74959 17.2172 4.35045C17.2172 3.95882 16.9512 3.6928 16.5595 3.6928H13.8241C13.4325 3.6928 13.1644 3.95882 13.1644 4.35045C13.1644 4.74959 13.4325 5.01561 13.8241 5.01561ZM1.26749 8.19654H19.7004V6.51584H1.26749V8.19654ZM4.3835 15.603C4.3835 18.9813 7.12991 21.7045 10.463 21.7045C10.5302 21.7045 10.5783 21.7045 10.6498 21.7045C10.4742 21.2215 10.3104 20.7342 10.1348 20.2512C10.1093 20.2491 10.0603 20.2469 10.0348 20.2448C8.10561 20.1647 5.81154 18.293 5.81154 15.603C5.81154 12.9994 7.89092 10.92 10.4946 10.92C13.0094 10.92 15.0584 12.9044 15.1385 15.3726C15.1406 15.427 15.1427 15.4952 15.1352 15.5496C15.6684 15.6056 16.1773 15.7669 16.56 15.9277C16.5771 15.7495 16.575 15.5639 16.5729 15.3858C16.4737 12.1193 13.7906 9.49194 10.4946 9.49194C7.11514 9.49194 4.3835 12.2332 4.3835 15.603Z" fill="#1C1C1E"/>
<path id="Vector_2" d="M17.2047 18.9133C18.5997 18.9133 18.9297 18.0133 19.9622 18.0133C20.8151 18.0133 21.157 18.6511 22.2426 18.8128L22.4386 17.5439C21.6103 17.3587 21.0757 16.6945 19.9622 16.6945C18.6021 16.6945 18.12 17.5945 17.2047 17.5945C16.2874 17.5945 15.7957 16.6945 14.4377 16.6945C13.3317 16.6945 12.7875 17.3587 11.9592 17.5439L12.1551 18.8128C13.2408 18.6511 13.5827 18.0133 14.4377 18.0133C15.468 18.0133 15.798 18.9133 17.2047 18.9133ZM14.5319 25.2888H19.8679C20.512 25.2888 21.0677 24.9173 21.3168 24.2583L23.7928 17.5908C24.0119 16.9833 23.7098 16.5248 23.2971 16.3748C22.8768 16.2269 22.3397 16.3631 22.113 16.9589L19.7796 23.2031C19.7018 23.411 19.578 23.4942 19.3926 23.4942H15.0051C14.8197 23.4942 14.696 23.411 14.6182 23.2031L12.2847 16.9589C12.0677 16.3631 11.5209 16.2269 11.1103 16.3748C10.688 16.5248 10.3955 16.9833 10.6146 17.5908L13.0905 24.2583C13.3301 24.9173 13.8954 25.2888 14.5319 25.2888Z" fill="#1C1C1E"/>
</g>
</g>
</svg>
