<svg width="28" height="20" viewBox="0 0 28 20" fill="none" xmlns="http://www.w3.org/2000/svg">
<g id="wifi">
<g id="Group" opacity="0.6">
<path id="Vector" d="M13.661 19.7667C13.9442 19.7667 14.19 19.6369 14.6597 19.181L17.5381 16.4156C17.7434 16.2124 17.7924 15.9061 17.6009 15.6677C16.7906 14.6306 15.3134 13.7878 13.661 13.7878C11.966 13.7878 10.4719 14.6679 9.65954 15.757C9.52337 15.9677 9.58501 16.2187 9.79149 16.4156L12.6624 19.181C13.1342 19.6273 13.38 19.7667 13.661 19.7667Z" fill="#1C1C1E"/>
<path id="Vector_2" d="M6.7128 13.2884C6.99804 13.5598 7.36085 13.5267 7.62264 13.2394C9.05631 11.6787 11.3448 10.5778 13.659 10.5874C15.9988 10.5778 18.2936 11.7138 19.7464 13.2787C19.9848 13.5523 20.32 13.5363 20.6052 13.2787L22.4469 11.4719C22.6597 11.2612 22.6874 10.9697 22.4884 10.7355C20.6682 8.53174 17.3279 6.92603 13.659 6.92603C9.99006 6.92603 6.65186 8.53174 4.8296 10.7355C4.63062 10.9697 4.64866 11.242 4.87108 11.4719L6.7128 13.2884Z" fill="#1C1C1E"/>
<path id="Vector_3" d="M1.81572 8.40679C2.07541 8.65898 2.45416 8.65687 2.70212 8.39296C5.5997 5.32382 9.39658 3.70241 13.6589 3.70241C17.9468 3.70241 21.765 5.33343 24.6413 8.40679C24.8796 8.64515 25.2445 8.63343 25.5021 8.38124L27.1425 6.73874C27.3766 6.50671 27.3713 6.20461 27.1819 5.98218C24.3689 2.5057 19.1154 0.0117188 13.6589 0.0117188C8.21205 0.0117188 2.93931 2.5057 0.135958 5.98218C-0.0534164 6.20461 -0.0491978 6.50671 0.175332 6.73874L1.81572 8.40679Z" fill="#1C1C1E"/>
</g>
</g>
</svg>
