<svg width="12" height="12" viewBox="0 0 12 12" fill="none" xmlns="http://www.w3.org/2000/svg">
<g id="xmark">
<g id="Group">
<path id="Vector" d="M0.763939 11.7753C1.07315 12.0774 1.59467 12.0735 1.88909 11.7791L6.26593 7.40229L10.6402 11.7778C10.9398 12.0774 11.4607 12.082 11.7641 11.774C12.0675 11.4648 12.0688 10.9555 11.7692 10.6547L7.3949 6.27329L11.7692 1.89901C12.0688 1.59948 12.0733 1.08436 11.7641 0.780978C11.4549 0.471765 10.9398 0.470484 10.6402 0.775856L6.26593 5.15014L1.88909 0.774575C1.59467 0.475607 1.06732 0.46465 0.763939 0.779698C0.461841 1.08891 0.465683 1.60331 0.760097 1.89773L5.13694 6.27329L0.760097 10.6572C0.465683 10.9504 0.456006 11.4719 0.763939 11.7753Z" fill="#1D1D1D"/>
</g>
</g>
</svg>
